<?xml version="1.0" standalone="no"?>
<!DOCTYPE svg PUBLIC "-//W3C//DTD SVG 20010904//EN"
 "http://www.w3.org/TR/2001/REC-SVG-20010904/DTD/svg10.dtd">
<svg version="1.0" xmlns="http://www.w3.org/2000/svg"
 width="512.000000pt" height="512.000000pt" viewBox="0 0 512.000000 512.000000"
 preserveAspectRatio="xMidYMid meet">

<g transform="translate(0.000000,512.000000) scale(0.100000,-0.100000)"
fill="#000000" stroke="none">
<path d="M1920 4195 c-357 -66 -556 -154 -699 -311 -52 -56 -85 -111 -103
-169 -6 -16 -13 -170 -16 -341 l-7 -311 -32 -30 c-31 -29 -32 -32 -26 -89 7
-75 47 -239 78 -324 14 -36 31 -95 40 -131 20 -88 39 -131 93 -212 l46 -69
-12 -129 c-6 -71 -16 -138 -22 -148 -5 -10 -25 -28 -44 -39 -30 -18 -38 -32
-71 -133 -21 -63 -47 -124 -59 -136 -11 -12 -131 -67 -266 -123 -345 -143
-677 -309 -782 -392 l-38 -30 0 -89 0 -89 1765 0 1765 0 0 95 0 95 -50 39
c-94 74 -441 238 -830 391 -102 40 -199 83 -215 95 -25 18 -38 44 -70 140 -31
93 -45 121 -69 140 -31 24 -31 25 -34 139 -4 137 8 207 49 271 17 27 53 116
80 198 27 83 59 165 70 184 15 24 24 68 35 170 l15 138 -28 24 -28 24 -5 321
c-7 417 9 380 -247 603 -153 133 -158 143 -93 202 22 20 37 40 34 44 -13 12
-96 6 -224 -18z"/>
<path d="M3644 3560 c-61 -9 -271 -101 -313 -137 -45 -38 -103 -145 -125 -228
-8 -33 -22 -154 -30 -269 -18 -236 -47 -394 -106 -581 -22 -69 -40 -132 -40
-140 0 -21 33 -40 166 -96 165 -69 169 -74 169 -202 0 -175 -31 -243 -118
-266 -25 -6 -63 -28 -92 -54 -27 -24 -66 -52 -85 -62 -31 -16 -32 -19 -15 -25
65 -25 391 -184 441 -216 32 -21 85 -62 117 -92 l57 -55 0 -119 0 -118 725 0
725 0 -6 28 c-35 160 -114 274 -247 356 -40 24 -135 69 -212 99 -251 99 -361
152 -418 201 -34 29 -74 52 -106 62 -30 8 -57 24 -66 37 -38 59 -57 252 -32
327 11 33 21 39 157 97 143 62 175 84 167 113 -3 8 -23 76 -46 150 -53 173
-78 302 -91 476 -29 380 -54 462 -177 574 -103 95 -284 158 -399 140z"/>
</g>
</svg>
