<svg xmlns="http://www.w3.org/2000/svg" xmlns:xlink="http://www.w3.org/1999/xlink" width="600" zoomAndPan="magnify" viewBox="0 0 450 299.999988" height="400" preserveAspectRatio="xMidYMid meet" version="1.0"><defs><g/><clipPath id="c97ea911be"><path d="M 360 124 L 392.398438 124 L 392.398438 194 L 360 194 Z M 360 124 " clip-rule="nonzero"/></clipPath><clipPath id="8bec4aeb29"><path d="M 324 160 L 350 160 L 350 209.253906 L 324 209.253906 Z M 324 160 " clip-rule="nonzero"/></clipPath><clipPath id="ad0a434fd4"><path d="M 279.148438 107 L 365 107 L 365 179 L 279.148438 179 Z M 279.148438 107 " clip-rule="nonzero"/></clipPath><clipPath id="0b3a32f031"><path d="M 279.042969 201.207031 L 303.789062 201.207031 L 303.789062 224.375 L 279.042969 224.375 Z M 279.042969 201.207031 " clip-rule="nonzero"/></clipPath><clipPath id="7aea837387"><path d="M 324.683594 212.792969 L 346.710938 212.792969 L 346.710938 235.957031 L 324.683594 235.957031 Z M 324.683594 212.792969 " clip-rule="nonzero"/></clipPath><clipPath id="3950a4363a"><path d="M 367.710938 201.207031 L 392.457031 201.207031 L 392.457031 224.375 L 367.710938 224.375 Z M 367.710938 201.207031 " clip-rule="nonzero"/></clipPath><clipPath id="cc7a109058"><path d="M 162.015625 55.433594 L 182.703125 55.433594 L 182.703125 74.640625 L 162.015625 74.640625 Z M 162.015625 55.433594 " clip-rule="nonzero"/></clipPath><clipPath id="a9bfe68ab8"><path d="M 157.816406 57 L 179.878906 57 L 179.878906 78.492188 L 157.816406 78.492188 Z M 157.816406 57 " clip-rule="nonzero"/></clipPath></defs><path fill="#353da8" d="M 359.167969 158.683594 L 359.71875 153.699219 C 359.363281 154.113281 359.003906 154.519531 358.625 154.914062 L 359.167969 158.683594 " fill-opacity="1" fill-rule="nonzero"/><g clip-path="url(#c97ea911be)"><path fill="#353da8" d="M 387.949219 128.789062 L 387.949219 128.785156 C 387.871094 126.972656 386.367188 125.554688 384.570312 125.550781 L 378.3125 124.949219 C 376.539062 125.929688 374.5 126.492188 372.332031 126.492188 C 370.164062 126.492188 368.125 125.929688 366.351562 124.949219 L 365.460938 125.035156 C 366.820312 129.246094 367.230469 133.742188 366.621094 138.253906 C 365.90625 143.527344 363.851562 148.402344 360.6875 152.507812 L 360.6875 169.191406 L 361.132812 172.277344 L 361.140625 172.421875 C 361.179688 173.34375 361.011719 174.230469 360.6875 175.046875 L 360.6875 187.933594 C 360.6875 190.820312 363.046875 193.179688 365.933594 193.179688 C 368.816406 193.179688 371.175781 190.820312 371.175781 187.933594 L 371.175781 165.71875 L 373.488281 165.71875 L 373.488281 187.933594 C 373.488281 190.820312 375.847656 193.179688 378.730469 193.179688 C 381.617188 193.179688 383.976562 190.820312 383.976562 187.933594 L 383.976562 144.894531 L 385.578125 159.429688 L 385.601562 159.652344 C 385.804688 161.507812 387.476562 162.84375 389.332031 162.640625 C 391.105469 162.445312 392.410156 160.894531 392.335938 159.136719 L 387.949219 128.789062 " fill-opacity="1" fill-rule="nonzero"/></g><path fill="#353da8" d="M 372.332031 123.523438 C 377.535156 123.523438 381.753906 119.308594 381.753906 114.101562 C 381.753906 108.898438 377.535156 104.679688 372.332031 104.679688 C 367.128906 104.679688 362.910156 108.898438 362.910156 114.101562 C 362.910156 119.308594 367.128906 123.523438 372.332031 123.523438 " fill-opacity="1" fill-rule="nonzero"/><path fill="#353da8" d="M 301.75 187.933594 C 301.75 190.820312 304.109375 193.179688 306.996094 193.179688 C 309.878906 193.179688 312.238281 190.820312 312.238281 187.933594 L 312.238281 163.441406 L 301.75 171.425781 L 301.75 187.933594 " fill-opacity="1" fill-rule="nonzero"/><path fill="#353da8" d="M 288.953125 181.105469 L 288.953125 187.933594 C 288.953125 190.820312 291.3125 193.179688 294.195312 193.179688 C 297.082031 193.179688 299.441406 190.820312 299.441406 187.933594 L 299.441406 173.1875 L 289.558594 180.707031 C 289.363281 180.855469 289.160156 180.984375 288.953125 181.105469 " fill-opacity="1" fill-rule="nonzero"/><path fill="#353da8" d="M 283.597656 162.640625 C 283.710938 162.652344 283.820312 162.660156 283.929688 162.660156 L 287.230469 160.148438 C 287.273438 159.988281 287.308594 159.824219 287.328125 159.652344 L 287.351562 159.429688 L 288.953125 144.894531 L 288.953125 158.835938 L 308.507812 143.949219 C 306.363281 137.722656 306.382812 131.128906 308.300781 125.113281 L 306.578125 124.949219 C 304.800781 125.929688 302.761719 126.492188 300.597656 126.492188 C 298.429688 126.492188 296.386719 125.929688 294.613281 124.949219 L 288.359375 125.550781 C 286.558594 125.554688 285.058594 126.972656 284.976562 128.785156 L 284.976562 128.789062 L 280.589844 159.136719 C 280.519531 160.894531 281.820312 162.445312 283.597656 162.640625 " fill-opacity="1" fill-rule="nonzero"/><path fill="#353da8" d="M 300.597656 123.523438 C 305.800781 123.523438 310.015625 119.308594 310.015625 114.101562 C 310.015625 108.898438 305.800781 104.679688 300.597656 104.679688 C 295.390625 104.679688 291.175781 108.898438 291.175781 114.101562 C 291.175781 119.308594 295.390625 123.523438 300.597656 123.523438 " fill-opacity="1" fill-rule="nonzero"/><path fill="#353da8" d="M 336.902344 134.433594 C 342.050781 134.433594 346.226562 130.257812 346.226562 125.109375 C 346.226562 119.957031 342.050781 115.78125 336.902344 115.78125 C 331.75 115.78125 327.574219 119.957031 327.574219 125.109375 C 327.574219 130.257812 331.75 134.433594 336.902344 134.433594 " fill-opacity="1" fill-rule="nonzero"/><path fill="#353da8" d="M 335.503906 148.21875 L 336.835938 150.136719 C 336.867188 150.183594 336.9375 150.183594 336.96875 150.136719 L 338.296875 148.21875 C 338.308594 148.203125 338.316406 148.1875 338.3125 148.167969 L 337.613281 139.523438 C 337.609375 139.503906 337.601562 139.484375 337.582031 139.46875 L 336.953125 139.410156 C 336.925781 139.382812 336.878906 139.382812 336.847656 139.410156 L 336.21875 139.46875 C 336.203125 139.484375 336.191406 139.503906 336.191406 139.523438 L 335.488281 148.167969 C 335.488281 148.1875 335.492188 148.203125 335.503906 148.21875 " fill-opacity="1" fill-rule="nonzero"/><path fill="#353da8" d="M 336.917969 156.066406 C 341.675781 156.066406 346.195312 154.539062 349.992188 151.648438 C 351.820312 150.257812 353.367188 148.625 354.617188 146.832031 L 353.632812 140.027344 L 353.632812 140.023438 C 353.546875 138.078125 351.9375 136.558594 350.011719 136.558594 L 344.191406 135.996094 C 343.664062 135.945312 343.199219 136.320312 342.988281 136.804688 L 336.902344 154.746094 L 330.816406 136.804688 C 330.625 136.277344 330.105469 135.949219 329.546875 136.003906 L 323.792969 136.558594 C 321.863281 136.558594 320.253906 138.078125 320.167969 140.023438 L 320.167969 140.027344 L 319.1875 146.828125 C 319.355469 147.070312 319.527344 147.308594 319.707031 147.542969 C 323.828125 152.960938 330.101562 156.066406 336.917969 156.066406 " fill-opacity="1" fill-rule="nonzero"/><path fill="#353da8" d="M 354.660156 157.78125 C 353.109375 158.960938 351.472656 159.96875 349.765625 160.808594 L 351.089844 172.851562 L 351.117188 173.089844 C 351.335938 175.078125 353.125 176.511719 355.113281 176.292969 C 357.015625 176.082031 358.410156 174.421875 358.332031 172.535156 L 356.039062 156.664062 C 355.589844 157.046875 355.132812 157.421875 354.660156 157.78125 " fill-opacity="1" fill-rule="nonzero"/><g clip-path="url(#8bec4aeb29)"><path fill="#353da8" d="M 336.921875 163.773438 C 332.507812 163.773438 328.265625 162.808594 324.425781 161.007812 L 324.425781 203.390625 C 324.425781 206.480469 326.953125 209.011719 330.046875 209.011719 C 333.136719 209.011719 335.664062 206.480469 335.664062 203.390625 L 335.664062 179.589844 L 338.140625 179.589844 L 338.140625 203.390625 C 338.140625 206.480469 340.667969 209.011719 343.757812 209.011719 C 346.847656 209.011719 349.375 206.480469 349.375 203.390625 L 349.375 160.996094 C 345.507812 162.824219 341.289062 163.773438 336.921875 163.773438 " fill-opacity="1" fill-rule="nonzero"/></g><g clip-path="url(#ad0a434fd4)"><path fill="#353da8" d="M 322.511719 115.335938 C 332.945312 107.394531 347.839844 109.414062 355.78125 119.847656 C 363.722656 130.277344 361.703125 145.175781 351.273438 153.113281 C 340.839844 161.058594 325.945312 159.039062 318.003906 148.605469 C 310.0625 138.175781 312.082031 123.277344 322.511719 115.335938 Z M 353.363281 155.859375 C 365.308594 146.765625 367.621094 129.707031 358.527344 117.757812 C 349.429688 105.8125 332.371094 103.5 320.425781 112.59375 C 310.300781 120.300781 307.097656 133.722656 311.886719 144.910156 L 280.5 168.804688 C 279.378906 169.65625 279.160156 171.265625 280.011719 172.386719 L 284.277344 177.984375 C 285.128906 179.105469 286.738281 179.324219 287.855469 178.472656 L 319.035156 154.734375 C 328.558594 163.042969 342.914062 163.8125 353.363281 155.859375 " fill-opacity="1" fill-rule="nonzero"/></g><path fill="#353da8" d="M 337.257812 138.121094 C 337.539062 138.121094 337.769531 137.894531 337.769531 137.613281 L 337.769531 137.3125 C 337.769531 137.035156 337.539062 136.804688 337.257812 136.804688 L 336.542969 136.804688 C 336.265625 136.804688 336.035156 137.035156 336.035156 137.3125 L 336.035156 137.613281 C 336.035156 137.894531 336.265625 138.121094 336.542969 138.121094 L 337.257812 138.121094 " fill-opacity="1" fill-rule="nonzero"/><path fill="#353da8" d="M 315.46875 172.535156 C 315.390625 174.421875 316.789062 176.082031 318.691406 176.292969 C 320.679688 176.511719 322.46875 175.078125 322.6875 173.089844 L 322.710938 172.851562 L 324.035156 160.824219 C 321.785156 159.726562 319.675781 158.335938 317.761719 156.675781 L 315.46875 172.535156 " fill-opacity="1" fill-rule="nonzero"/><g clip-path="url(#0b3a32f031)"><path fill="#000000" d="M 279.042969 201.207031 L 303.746094 201.207031 L 303.746094 224.375 L 279.042969 224.375 Z M 279.042969 201.207031 " fill-opacity="1" fill-rule="nonzero"/></g><g clip-path="url(#7aea837387)"><path fill="#000000" d="M 324.683594 212.792969 L 346.710938 212.792969 L 346.710938 235.9375 L 324.683594 235.9375 Z M 324.683594 212.792969 " fill-opacity="1" fill-rule="nonzero"/></g><g clip-path="url(#3950a4363a)"><path fill="#000000" d="M 367.710938 201.207031 L 392.414062 201.207031 L 392.414062 224.375 L 367.710938 224.375 Z M 367.710938 201.207031 " fill-opacity="1" fill-rule="nonzero"/></g><g clip-path="url(#cc7a109058)"><path fill="#242424" d="M 162.582031 66.289062 C 162.605469 65.988281 162.734375 65.71875 162.925781 65.472656 C 163.589844 64.605469 165.074219 64.207031 166.113281 64.847656 C 166.730469 65.226562 167.222656 65.710938 167.628906 66.28125 C 167.96875 66.757812 168.277344 67.257812 168.605469 67.757812 C 168.835938 67.433594 169.070312 67.101562 169.308594 66.773438 C 171.355469 63.933594 173.609375 61.277344 176.222656 58.933594 C 177.820312 57.492188 179.65625 56.425781 181.632812 55.582031 C 181.980469 55.433594 182.261719 55.492188 182.554688 55.785156 C 182.421875 55.910156 182.289062 56.03125 182.15625 56.15625 C 180.429688 57.773438 178.738281 59.429688 177.207031 61.234375 C 176.328125 62.261719 175.515625 63.347656 174.675781 64.410156 C 172.992188 66.550781 171.726562 68.960938 170.296875 71.261719 C 169.742188 72.152344 169.195312 73.046875 168.640625 73.933594 C 168.421875 74.285156 168.132812 74.28125 167.910156 73.921875 C 167.195312 72.746094 166.628906 71.503906 166.097656 70.246094 C 165.648438 69.191406 165.148438 68.164062 164.511719 67.207031 C 164.199219 66.738281 163.828125 66.347656 163.21875 66.296875 C 163.011719 66.277344 162.804688 66.289062 162.582031 66.289062 Z M 162.582031 66.289062 " fill-opacity="1" fill-rule="nonzero"/></g><g clip-path="url(#a9bfe68ab8)"><path fill="#242424" d="M 178.082031 62.628906 L 176.402344 64.292969 C 176.894531 65.359375 177.160156 66.539062 177.160156 67.78125 C 177.160156 72.460938 173.335938 76.257812 168.621094 76.257812 C 163.90625 76.257812 160.085938 72.460938 160.085938 67.78125 C 160.085938 63.097656 163.90625 59.304688 168.621094 59.304688 C 169.800781 59.304688 170.925781 59.542969 171.945312 59.972656 L 173.632812 58.292969 C 172.136719 57.507812 170.433594 57.066406 168.621094 57.066406 C 162.660156 57.066406 157.832031 61.863281 157.832031 67.78125 C 157.832031 73.699219 162.660156 78.492188 168.621094 78.492188 C 174.582031 78.492188 179.414062 73.699219 179.414062 67.78125 C 179.414062 65.914062 178.933594 64.15625 178.082031 62.628906 Z M 178.082031 62.628906 " fill-opacity="1" fill-rule="nonzero"/></g><path fill="#242424" d="M 191.785156 69.707031 C 191.785156 71.058594 191.300781 72.128906 190.335938 72.914062 C 189.378906 73.6875 188.085938 74.074219 186.445312 74.074219 C 185.015625 74.074219 183.863281 73.789062 182.988281 73.207031 L 182.988281 70.558594 C 184.234375 71.261719 185.390625 71.613281 186.460938 71.613281 C 187.195312 71.613281 187.761719 71.476562 188.171875 71.199219 C 188.578125 70.921875 188.78125 70.546875 188.78125 70.070312 C 188.78125 69.792969 188.734375 69.550781 188.644531 69.34375 C 188.558594 69.136719 188.4375 68.945312 188.277344 68.773438 C 188.109375 68.589844 187.710938 68.253906 187.074219 67.769531 C 186.175781 67.136719 185.546875 66.503906 185.1875 65.878906 C 184.828125 65.257812 184.648438 64.589844 184.648438 63.871094 C 184.648438 63.039062 184.84375 62.304688 185.242188 61.652344 C 185.644531 60.996094 186.21875 60.488281 186.949219 60.128906 C 187.691406 59.761719 188.546875 59.574219 189.515625 59.574219 C 190.917969 59.574219 192.207031 59.894531 193.371094 60.527344 L 192.324219 62.78125 C 191.3125 62.308594 190.375 62.070312 189.515625 62.070312 C 188.980469 62.070312 188.539062 62.214844 188.1875 62.503906 C 187.847656 62.792969 187.683594 63.171875 187.683594 63.644531 C 187.683594 64.039062 187.789062 64.386719 187.996094 64.683594 C 188.214844 64.976562 188.699219 65.355469 189.445312 65.828125 C 190.222656 66.347656 190.804688 66.917969 191.191406 67.542969 C 191.582031 68.15625 191.785156 68.875 191.785156 69.707031 Z M 191.785156 69.707031 " fill-opacity="1" fill-rule="nonzero"/><path fill="#242424" d="M 201.59375 73.882812 L 193.652344 73.882812 L 196.65625 59.765625 L 204.59375 59.765625 L 204.070312 62.226562 L 199.097656 62.226562 L 198.453125 65.324219 L 203.09375 65.324219 L 202.550781 67.769531 L 197.910156 67.769531 L 197.144531 71.40625 L 202.117188 71.40625 Z M 201.59375 73.882812 " fill-opacity="1" fill-rule="nonzero"/><path fill="#242424" d="M 204.4375 73.882812 L 207.4375 59.765625 L 210.40625 59.765625 L 207.925781 71.40625 L 212.898438 71.40625 L 212.375 73.882812 Z M 204.4375 73.882812 " fill-opacity="1" fill-rule="nonzero"/><path fill="#242424" d="M 222.683594 73.882812 L 214.746094 73.882812 L 217.746094 59.765625 L 225.6875 59.765625 L 225.164062 62.226562 L 220.191406 62.226562 L 219.542969 65.324219 L 224.183594 65.324219 L 223.644531 67.769531 L 219.003906 67.769531 L 218.234375 71.40625 L 223.207031 71.40625 Z M 222.683594 73.882812 " fill-opacity="1" fill-rule="nonzero"/><path fill="#242424" d="M 233.800781 62.035156 C 232.949219 62.035156 232.183594 62.304688 231.496094 62.832031 C 230.808594 63.351562 230.257812 64.121094 229.839844 65.136719 C 229.429688 66.140625 229.230469 67.226562 229.230469 68.390625 C 229.230469 69.464844 229.445312 70.261719 229.890625 70.78125 C 230.332031 71.300781 231.042969 71.5625 232.019531 71.5625 C 232.960938 71.5625 234.054688 71.316406 235.300781 70.816406 L 235.300781 73.328125 C 234.007812 73.828125 232.710938 74.074219 231.410156 74.074219 C 229.769531 74.074219 228.488281 73.597656 227.570312 72.636719 C 226.664062 71.679688 226.210938 70.3125 226.210938 68.546875 C 226.210938 66.863281 226.542969 65.308594 227.203125 63.886719 C 227.875 62.46875 228.78125 61.394531 229.910156 60.667969 C 231.035156 59.929688 232.335938 59.558594 233.800781 59.558594 C 234.609375 59.558594 235.335938 59.636719 235.964844 59.78125 C 236.589844 59.921875 237.261719 60.179688 237.988281 60.5625 L 236.835938 62.96875 C 236.148438 62.601562 235.578125 62.355469 235.125 62.226562 C 234.679688 62.101562 234.242188 62.035156 233.800781 62.035156 Z M 233.800781 62.035156 " fill-opacity="1" fill-rule="nonzero"/><path fill="#242424" d="M 242.730469 73.882812 L 239.761719 73.882812 L 242.238281 62.261719 L 238.820312 62.261719 L 239.34375 59.765625 L 249.167969 59.765625 L 248.625 62.261719 L 245.207031 62.261719 Z M 242.730469 73.882812 " fill-opacity="1" fill-rule="nonzero"/><path fill="#2193b0" d="M 256.945312 69.707031 C 256.945312 71.058594 256.460938 72.128906 255.5 72.914062 C 254.542969 73.6875 253.246094 74.074219 251.609375 74.074219 C 250.175781 74.074219 249.023438 73.789062 248.152344 73.207031 L 248.152344 70.558594 C 249.394531 71.261719 250.550781 71.613281 251.625 71.613281 C 252.359375 71.613281 252.925781 71.476562 253.335938 71.199219 C 253.742188 70.921875 253.945312 70.546875 253.945312 70.070312 C 253.945312 69.792969 253.898438 69.550781 253.804688 69.34375 C 253.722656 69.136719 253.601562 68.945312 253.441406 68.773438 C 253.273438 68.589844 252.871094 68.253906 252.234375 67.769531 C 251.335938 67.136719 250.710938 66.503906 250.351562 65.878906 C 249.988281 65.257812 249.808594 64.589844 249.808594 63.871094 C 249.808594 63.039062 250.007812 62.304688 250.402344 61.652344 C 250.808594 60.996094 251.378906 60.488281 252.113281 60.128906 C 252.855469 59.761719 253.710938 59.574219 254.679688 59.574219 C 256.082031 59.574219 257.371094 59.894531 258.535156 60.527344 L 257.488281 62.78125 C 256.476562 62.308594 255.539062 62.070312 254.679688 62.070312 C 254.140625 62.070312 253.703125 62.214844 253.351562 62.503906 C 253.011719 62.792969 252.847656 63.171875 252.847656 63.644531 C 252.847656 64.039062 252.949219 64.386719 253.160156 64.683594 C 253.378906 64.976562 253.863281 65.355469 254.609375 65.828125 C 255.386719 66.347656 255.96875 66.917969 256.351562 67.542969 C 256.746094 68.15625 256.945312 68.875 256.945312 69.707031 Z M 256.945312 69.707031 " fill-opacity="1" fill-rule="nonzero"/><path fill="#2193b0" d="M 272.214844 64.824219 C 272.214844 66.652344 271.890625 68.285156 271.238281 69.726562 C 270.597656 71.160156 269.722656 72.246094 268.605469 72.980469 C 267.496094 73.710938 266.21875 74.074219 264.765625 74.074219 C 263.101562 74.074219 261.804688 73.601562 260.875 72.652344 C 259.953125 71.707031 259.496094 70.390625 259.496094 68.703125 C 259.496094 66.996094 259.816406 65.425781 260.457031 63.992188 C 261.09375 62.5625 261.980469 61.464844 263.109375 60.699219 C 264.234375 59.9375 265.539062 59.558594 267.015625 59.558594 C 268.664062 59.558594 269.949219 60.019531 270.855469 60.945312 C 271.761719 61.871094 272.214844 63.160156 272.214844 64.824219 Z M 266.773438 62.035156 C 265.980469 62.035156 265.257812 62.328125 264.609375 62.917969 C 263.953125 63.507812 263.445312 64.320312 263.074219 65.359375 C 262.699219 66.390625 262.515625 67.503906 262.515625 68.703125 C 262.515625 69.652344 262.730469 70.367188 263.160156 70.851562 C 263.589844 71.328125 264.195312 71.5625 264.976562 71.5625 C 265.765625 71.5625 266.480469 71.285156 267.121094 70.730469 C 267.773438 70.167969 268.277344 69.375 268.640625 68.355469 C 268.996094 67.332031 269.179688 66.183594 269.179688 64.910156 C 269.179688 64 268.972656 63.292969 268.550781 62.796875 C 268.132812 62.289062 267.539062 62.035156 266.773438 62.035156 Z M 266.773438 62.035156 " fill-opacity="1" fill-rule="nonzero"/><path fill="#2193b0" d="M 276.289062 73.882812 L 273.339844 73.882812 L 276.34375 59.765625 L 284.246094 59.765625 L 283.722656 62.226562 L 278.785156 62.226562 L 278.015625 65.863281 L 282.625 65.863281 L 282.066406 68.304688 L 277.476562 68.304688 Z M 276.289062 73.882812 " fill-opacity="1" fill-rule="nonzero"/><path fill="#2193b0" d="M 288.925781 73.882812 L 285.960938 73.882812 L 288.4375 62.261719 L 285.019531 62.261719 L 285.542969 59.765625 L 295.363281 59.765625 L 294.824219 62.261719 L 291.402344 62.261719 Z M 288.925781 73.882812 " fill-opacity="1" fill-rule="nonzero"/><g fill="#353da8" fill-opacity="1"><g transform="translate(69.516618, 117.987704)"><g><path d="M 9.84375 -11.015625 L 9.84375 -3.890625 C 9.84375 -2.628906 9.460938 -1.640625 8.703125 -0.921875 C 7.941406 -0.203125 6.898438 0.15625 5.578125 0.15625 C 4.242188 0.15625 3.210938 -0.203125 2.484375 -0.921875 C 1.765625 -1.648438 1.40625 -2.648438 1.40625 -3.921875 L 1.40625 -11.015625 L 2.6875 -11.015625 L 2.6875 -3.828125 C 2.6875 -2.910156 2.9375 -2.203125 3.4375 -1.703125 C 3.9375 -1.210938 4.675781 -0.96875 5.65625 -0.96875 C 6.582031 -0.96875 7.296875 -1.210938 7.796875 -1.703125 C 8.304688 -2.203125 8.5625 -2.914062 8.5625 -3.84375 L 8.5625 -11.015625 Z M 9.84375 -11.015625 "/></g></g></g><g fill="#353da8" fill-opacity="1"><g transform="translate(80.749304, 117.987704)"><g><path d="M 6.984375 0 L 6.984375 -5.34375 C 6.984375 -6.019531 6.828125 -6.519531 6.515625 -6.84375 C 6.210938 -7.175781 5.734375 -7.34375 5.078125 -7.34375 C 4.210938 -7.34375 3.578125 -7.109375 3.171875 -6.640625 C 2.773438 -6.179688 2.578125 -5.410156 2.578125 -4.328125 L 2.578125 0 L 1.328125 0 L 1.328125 -8.265625 L 2.34375 -8.265625 L 2.546875 -7.125 L 2.609375 -7.125 C 2.867188 -7.53125 3.226562 -7.84375 3.6875 -8.0625 C 4.144531 -8.289062 4.660156 -8.40625 5.234375 -8.40625 C 6.222656 -8.40625 6.96875 -8.164062 7.46875 -7.6875 C 7.976562 -7.207031 8.234375 -6.441406 8.234375 -5.390625 L 8.234375 0 Z M 6.984375 0 "/></g></g></g><g fill="#353da8" fill-opacity="1"><g transform="translate(90.219114, 117.987704)"><g><path d="M 6.40625 0 L 6.15625 -1.171875 L 6.09375 -1.171875 C 5.6875 -0.660156 5.273438 -0.3125 4.859375 -0.125 C 4.453125 0.0625 3.941406 0.15625 3.328125 0.15625 C 2.515625 0.15625 1.875 -0.0507812 1.40625 -0.46875 C 0.9375 -0.894531 0.703125 -1.5 0.703125 -2.28125 C 0.703125 -3.945312 2.039062 -4.820312 4.71875 -4.90625 L 6.109375 -4.953125 L 6.109375 -5.46875 C 6.109375 -6.113281 5.96875 -6.585938 5.6875 -6.890625 C 5.414062 -7.203125 4.972656 -7.359375 4.359375 -7.359375 C 3.671875 -7.359375 2.890625 -7.148438 2.015625 -6.734375 L 1.640625 -7.6875 C 2.046875 -7.90625 2.488281 -8.078125 2.96875 -8.203125 C 3.457031 -8.328125 3.945312 -8.390625 4.4375 -8.390625 C 5.414062 -8.390625 6.140625 -8.171875 6.609375 -7.734375 C 7.085938 -7.296875 7.328125 -6.597656 7.328125 -5.640625 L 7.328125 0 Z M 3.578125 -0.875 C 4.359375 -0.875 4.96875 -1.085938 5.40625 -1.515625 C 5.851562 -1.941406 6.078125 -2.539062 6.078125 -3.3125 L 6.078125 -4.0625 L 4.828125 -4.015625 C 3.835938 -3.972656 3.117188 -3.816406 2.671875 -3.546875 C 2.234375 -3.273438 2.015625 -2.847656 2.015625 -2.265625 C 2.015625 -1.816406 2.148438 -1.472656 2.421875 -1.234375 C 2.703125 -0.992188 3.085938 -0.875 3.578125 -0.875 Z M 3.578125 -0.875 "/></g></g></g><g fill="#353da8" fill-opacity="1"><g transform="translate(98.799954, 117.987704)"><g/></g></g><g fill="#353da8" fill-opacity="1"><g transform="translate(102.807858, 117.987704)"><g><path d="M 6.984375 0 L 6.984375 -5.34375 C 6.984375 -6.019531 6.828125 -6.519531 6.515625 -6.84375 C 6.210938 -7.175781 5.734375 -7.34375 5.078125 -7.34375 C 4.210938 -7.34375 3.578125 -7.109375 3.171875 -6.640625 C 2.773438 -6.171875 2.578125 -5.394531 2.578125 -4.3125 L 2.578125 0 L 1.328125 0 L 1.328125 -11.734375 L 2.578125 -11.734375 L 2.578125 -8.171875 C 2.578125 -7.742188 2.554688 -7.390625 2.515625 -7.109375 L 2.59375 -7.109375 C 2.84375 -7.515625 3.191406 -7.828125 3.640625 -8.046875 C 4.097656 -8.273438 4.617188 -8.390625 5.203125 -8.390625 C 6.210938 -8.390625 6.96875 -8.148438 7.46875 -7.671875 C 7.976562 -7.191406 8.234375 -6.429688 8.234375 -5.390625 L 8.234375 0 Z M 6.984375 0 "/></g></g></g><g fill="#353da8" fill-opacity="1"><g transform="translate(112.277668, 117.987704)"><g><path d="M 4.8125 0.15625 C 3.59375 0.15625 2.628906 -0.210938 1.921875 -0.953125 C 1.210938 -1.703125 0.859375 -2.738281 0.859375 -4.0625 C 0.859375 -5.394531 1.1875 -6.453125 1.84375 -7.234375 C 2.5 -8.015625 3.382812 -8.40625 4.5 -8.40625 C 5.53125 -8.40625 6.347656 -8.066406 6.953125 -7.390625 C 7.554688 -6.710938 7.859375 -5.816406 7.859375 -4.703125 L 7.859375 -3.90625 L 2.15625 -3.90625 C 2.1875 -2.9375 2.429688 -2.195312 2.890625 -1.6875 C 3.359375 -1.1875 4.015625 -0.9375 4.859375 -0.9375 C 5.753906 -0.9375 6.632812 -1.125 7.5 -1.5 L 7.5 -0.390625 C 7.0625 -0.191406 6.644531 -0.0507812 6.25 0.03125 C 5.851562 0.113281 5.375 0.15625 4.8125 0.15625 Z M 4.484375 -7.359375 C 3.816406 -7.359375 3.285156 -7.140625 2.890625 -6.703125 C 2.492188 -6.273438 2.257812 -5.679688 2.1875 -4.921875 L 6.515625 -4.921875 C 6.515625 -5.710938 6.335938 -6.316406 5.984375 -6.734375 C 5.628906 -7.148438 5.128906 -7.359375 4.484375 -7.359375 Z M 4.484375 -7.359375 "/></g></g></g><g fill="#353da8" fill-opacity="1"><g transform="translate(120.933844, 117.987704)"><g><path d="M 5.09375 -8.40625 C 5.457031 -8.40625 5.785156 -8.378906 6.078125 -8.328125 L 5.90625 -7.15625 C 5.5625 -7.238281 5.257812 -7.28125 5 -7.28125 C 4.332031 -7.28125 3.757812 -7.003906 3.28125 -6.453125 C 2.8125 -5.910156 2.578125 -5.238281 2.578125 -4.4375 L 2.578125 0 L 1.328125 0 L 1.328125 -8.265625 L 2.359375 -8.265625 L 2.5 -6.734375 L 2.5625 -6.734375 C 2.863281 -7.265625 3.226562 -7.675781 3.65625 -7.96875 C 4.09375 -8.257812 4.570312 -8.40625 5.09375 -8.40625 Z M 5.09375 -8.40625 "/></g></g></g><g fill="#353da8" fill-opacity="1"><g transform="translate(127.23198, 117.987704)"><g><path d="M 5.09375 -8.40625 C 5.457031 -8.40625 5.785156 -8.378906 6.078125 -8.328125 L 5.90625 -7.15625 C 5.5625 -7.238281 5.257812 -7.28125 5 -7.28125 C 4.332031 -7.28125 3.757812 -7.003906 3.28125 -6.453125 C 2.8125 -5.910156 2.578125 -5.238281 2.578125 -4.4375 L 2.578125 0 L 1.328125 0 L 1.328125 -8.265625 L 2.359375 -8.265625 L 2.5 -6.734375 L 2.5625 -6.734375 C 2.863281 -7.265625 3.226562 -7.675781 3.65625 -7.96875 C 4.09375 -8.257812 4.570312 -8.40625 5.09375 -8.40625 Z M 5.09375 -8.40625 "/></g></g></g><g fill="#353da8" fill-opacity="1"><g transform="translate(133.530115, 117.987704)"><g><path d="M 6.40625 0 L 6.15625 -1.171875 L 6.09375 -1.171875 C 5.6875 -0.660156 5.273438 -0.3125 4.859375 -0.125 C 4.453125 0.0625 3.941406 0.15625 3.328125 0.15625 C 2.515625 0.15625 1.875 -0.0507812 1.40625 -0.46875 C 0.9375 -0.894531 0.703125 -1.5 0.703125 -2.28125 C 0.703125 -3.945312 2.039062 -4.820312 4.71875 -4.90625 L 6.109375 -4.953125 L 6.109375 -5.46875 C 6.109375 -6.113281 5.96875 -6.585938 5.6875 -6.890625 C 5.414062 -7.203125 4.972656 -7.359375 4.359375 -7.359375 C 3.671875 -7.359375 2.890625 -7.148438 2.015625 -6.734375 L 1.640625 -7.6875 C 2.046875 -7.90625 2.488281 -8.078125 2.96875 -8.203125 C 3.457031 -8.328125 3.945312 -8.390625 4.4375 -8.390625 C 5.414062 -8.390625 6.140625 -8.171875 6.609375 -7.734375 C 7.085938 -7.296875 7.328125 -6.597656 7.328125 -5.640625 L 7.328125 0 Z M 3.578125 -0.875 C 4.359375 -0.875 4.96875 -1.085938 5.40625 -1.515625 C 5.851562 -1.941406 6.078125 -2.539062 6.078125 -3.3125 L 6.078125 -4.0625 L 4.828125 -4.015625 C 3.835938 -3.972656 3.117188 -3.816406 2.671875 -3.546875 C 2.234375 -3.273438 2.015625 -2.847656 2.015625 -2.265625 C 2.015625 -1.816406 2.148438 -1.472656 2.421875 -1.234375 C 2.703125 -0.992188 3.085938 -0.875 3.578125 -0.875 Z M 3.578125 -0.875 "/></g></g></g><g fill="#353da8" fill-opacity="1"><g transform="translate(142.110954, 117.987704)"><g><path d="M 11.859375 0 L 11.859375 -5.375 C 11.859375 -6.03125 11.71875 -6.519531 11.4375 -6.84375 C 11.15625 -7.175781 10.71875 -7.34375 10.125 -7.34375 C 9.34375 -7.34375 8.765625 -7.117188 8.390625 -6.671875 C 8.023438 -6.222656 7.84375 -5.535156 7.84375 -4.609375 L 7.84375 0 L 6.59375 0 L 6.59375 -5.375 C 6.59375 -6.03125 6.453125 -6.519531 6.171875 -6.84375 C 5.890625 -7.175781 5.445312 -7.34375 4.84375 -7.34375 C 4.0625 -7.34375 3.488281 -7.109375 3.125 -6.640625 C 2.757812 -6.171875 2.578125 -5.398438 2.578125 -4.328125 L 2.578125 0 L 1.328125 0 L 1.328125 -8.265625 L 2.34375 -8.265625 L 2.546875 -7.125 L 2.609375 -7.125 C 2.847656 -7.53125 3.179688 -7.84375 3.609375 -8.0625 C 4.035156 -8.289062 4.515625 -8.40625 5.046875 -8.40625 C 6.335938 -8.40625 7.179688 -7.941406 7.578125 -7.015625 L 7.640625 -7.015625 C 7.890625 -7.441406 8.25 -7.78125 8.71875 -8.03125 C 9.1875 -8.28125 9.71875 -8.40625 10.3125 -8.40625 C 11.25 -8.40625 11.945312 -8.164062 12.40625 -7.6875 C 12.875 -7.207031 13.109375 -6.441406 13.109375 -5.390625 L 13.109375 0 Z M 11.859375 0 "/></g></g></g><g fill="#353da8" fill-opacity="1"><g transform="translate(156.462573, 117.987704)"><g><path d="M 2.578125 0 L 1.328125 0 L 1.328125 -8.265625 L 2.578125 -8.265625 Z M 1.21875 -10.5 C 1.21875 -10.789062 1.285156 -11 1.421875 -11.125 C 1.566406 -11.257812 1.742188 -11.328125 1.953125 -11.328125 C 2.160156 -11.328125 2.335938 -11.257812 2.484375 -11.125 C 2.628906 -10.988281 2.703125 -10.78125 2.703125 -10.5 C 2.703125 -10.21875 2.628906 -10.003906 2.484375 -9.859375 C 2.335938 -9.722656 2.160156 -9.65625 1.953125 -9.65625 C 1.742188 -9.65625 1.566406 -9.722656 1.421875 -9.859375 C 1.285156 -10.003906 1.21875 -10.21875 1.21875 -10.5 Z M 1.21875 -10.5 "/></g></g></g><g fill="#353da8" fill-opacity="1"><g transform="translate(160.365006, 117.987704)"><g><path d="M 4.8125 0.15625 C 3.59375 0.15625 2.628906 -0.210938 1.921875 -0.953125 C 1.210938 -1.703125 0.859375 -2.738281 0.859375 -4.0625 C 0.859375 -5.394531 1.1875 -6.453125 1.84375 -7.234375 C 2.5 -8.015625 3.382812 -8.40625 4.5 -8.40625 C 5.53125 -8.40625 6.347656 -8.066406 6.953125 -7.390625 C 7.554688 -6.710938 7.859375 -5.816406 7.859375 -4.703125 L 7.859375 -3.90625 L 2.15625 -3.90625 C 2.1875 -2.9375 2.429688 -2.195312 2.890625 -1.6875 C 3.359375 -1.1875 4.015625 -0.9375 4.859375 -0.9375 C 5.753906 -0.9375 6.632812 -1.125 7.5 -1.5 L 7.5 -0.390625 C 7.0625 -0.191406 6.644531 -0.0507812 6.25 0.03125 C 5.851562 0.113281 5.375 0.15625 4.8125 0.15625 Z M 4.484375 -7.359375 C 3.816406 -7.359375 3.285156 -7.140625 2.890625 -6.703125 C 2.492188 -6.273438 2.257812 -5.679688 2.1875 -4.921875 L 6.515625 -4.921875 C 6.515625 -5.710938 6.335938 -6.316406 5.984375 -6.734375 C 5.628906 -7.148438 5.128906 -7.359375 4.484375 -7.359375 Z M 4.484375 -7.359375 "/></g></g></g><g fill="#353da8" fill-opacity="1"><g transform="translate(169.021182, 117.987704)"><g><path d="M 6.984375 0 L 6.984375 -5.34375 C 6.984375 -6.019531 6.828125 -6.519531 6.515625 -6.84375 C 6.210938 -7.175781 5.734375 -7.34375 5.078125 -7.34375 C 4.210938 -7.34375 3.578125 -7.109375 3.171875 -6.640625 C 2.773438 -6.179688 2.578125 -5.410156 2.578125 -4.328125 L 2.578125 0 L 1.328125 0 L 1.328125 -8.265625 L 2.34375 -8.265625 L 2.546875 -7.125 L 2.609375 -7.125 C 2.867188 -7.53125 3.226562 -7.84375 3.6875 -8.0625 C 4.144531 -8.289062 4.660156 -8.40625 5.234375 -8.40625 C 6.222656 -8.40625 6.96875 -8.164062 7.46875 -7.6875 C 7.976562 -7.207031 8.234375 -6.441406 8.234375 -5.390625 L 8.234375 0 Z M 6.984375 0 "/></g></g></g><g fill="#353da8" fill-opacity="1"><g transform="translate(178.490993, 117.987704)"><g><path d="M 4 -0.875 C 4.21875 -0.875 4.425781 -0.890625 4.625 -0.921875 C 4.832031 -0.960938 5 -1 5.125 -1.03125 L 5.125 -0.078125 C 4.988281 -0.015625 4.785156 0.0351562 4.515625 0.078125 C 4.253906 0.128906 4.019531 0.15625 3.8125 0.15625 C 2.21875 0.15625 1.421875 -0.6875 1.421875 -2.375 L 1.421875 -7.296875 L 0.234375 -7.296875 L 0.234375 -7.890625 L 1.421875 -8.40625 L 1.9375 -10.171875 L 2.671875 -10.171875 L 2.671875 -8.265625 L 5.0625 -8.265625 L 5.0625 -7.296875 L 2.671875 -7.296875 L 2.671875 -2.421875 C 2.671875 -1.929688 2.785156 -1.550781 3.015625 -1.28125 C 3.253906 -1.007812 3.582031 -0.875 4 -0.875 Z M 4 -0.875 "/></g></g></g><g fill="#353da8" fill-opacity="1"><g transform="translate(183.937832, 117.987704)"><g><path d="M 6.40625 0 L 6.15625 -1.171875 L 6.09375 -1.171875 C 5.6875 -0.660156 5.273438 -0.3125 4.859375 -0.125 C 4.453125 0.0625 3.941406 0.15625 3.328125 0.15625 C 2.515625 0.15625 1.875 -0.0507812 1.40625 -0.46875 C 0.9375 -0.894531 0.703125 -1.5 0.703125 -2.28125 C 0.703125 -3.945312 2.039062 -4.820312 4.71875 -4.90625 L 6.109375 -4.953125 L 6.109375 -5.46875 C 6.109375 -6.113281 5.96875 -6.585938 5.6875 -6.890625 C 5.414062 -7.203125 4.972656 -7.359375 4.359375 -7.359375 C 3.671875 -7.359375 2.890625 -7.148438 2.015625 -6.734375 L 1.640625 -7.6875 C 2.046875 -7.90625 2.488281 -8.078125 2.96875 -8.203125 C 3.457031 -8.328125 3.945312 -8.390625 4.4375 -8.390625 C 5.414062 -8.390625 6.140625 -8.171875 6.609375 -7.734375 C 7.085938 -7.296875 7.328125 -6.597656 7.328125 -5.640625 L 7.328125 0 Z M 3.578125 -0.875 C 4.359375 -0.875 4.96875 -1.085938 5.40625 -1.515625 C 5.851562 -1.941406 6.078125 -2.539062 6.078125 -3.3125 L 6.078125 -4.0625 L 4.828125 -4.015625 C 3.835938 -3.972656 3.117188 -3.816406 2.671875 -3.546875 C 2.234375 -3.273438 2.015625 -2.847656 2.015625 -2.265625 C 2.015625 -1.816406 2.148438 -1.472656 2.421875 -1.234375 C 2.703125 -0.992188 3.085938 -0.875 3.578125 -0.875 Z M 3.578125 -0.875 "/></g></g></g><g fill="#353da8" fill-opacity="1"><g transform="translate(69.516618, 139.357251)"><g><path d="M 5.171875 0.15625 C 4.628906 0.15625 4.132812 0.0546875 3.6875 -0.140625 C 3.25 -0.335938 2.878906 -0.644531 2.578125 -1.0625 L 2.484375 -1.0625 C 2.546875 -0.582031 2.578125 -0.125 2.578125 0.3125 L 2.578125 3.703125 L 1.328125 3.703125 L 1.328125 -8.265625 L 2.34375 -8.265625 L 2.515625 -7.125 L 2.578125 -7.125 C 2.898438 -7.582031 3.273438 -7.910156 3.703125 -8.109375 C 4.128906 -8.304688 4.617188 -8.40625 5.171875 -8.40625 C 6.265625 -8.40625 7.109375 -8.03125 7.703125 -7.28125 C 8.296875 -6.539062 8.59375 -5.492188 8.59375 -4.140625 C 8.59375 -2.785156 8.289062 -1.726562 7.6875 -0.96875 C 7.082031 -0.21875 6.242188 0.15625 5.171875 0.15625 Z M 4.984375 -7.34375 C 4.140625 -7.34375 3.53125 -7.109375 3.15625 -6.640625 C 2.78125 -6.179688 2.585938 -5.441406 2.578125 -4.421875 L 2.578125 -4.140625 C 2.578125 -2.972656 2.769531 -2.140625 3.15625 -1.640625 C 3.539062 -1.140625 4.160156 -0.890625 5.015625 -0.890625 C 5.734375 -0.890625 6.289062 -1.175781 6.6875 -1.75 C 7.09375 -2.332031 7.296875 -3.132812 7.296875 -4.15625 C 7.296875 -5.1875 7.09375 -5.972656 6.6875 -6.515625 C 6.289062 -7.066406 5.722656 -7.34375 4.984375 -7.34375 Z M 4.984375 -7.34375 "/></g></g></g><g fill="#353da8" fill-opacity="1"><g transform="translate(78.971361, 139.357251)"><g><path d="M 6.40625 0 L 6.15625 -1.171875 L 6.09375 -1.171875 C 5.6875 -0.660156 5.273438 -0.3125 4.859375 -0.125 C 4.453125 0.0625 3.941406 0.15625 3.328125 0.15625 C 2.515625 0.15625 1.875 -0.0507812 1.40625 -0.46875 C 0.9375 -0.894531 0.703125 -1.5 0.703125 -2.28125 C 0.703125 -3.945312 2.039062 -4.820312 4.71875 -4.90625 L 6.109375 -4.953125 L 6.109375 -5.46875 C 6.109375 -6.113281 5.96875 -6.585938 5.6875 -6.890625 C 5.414062 -7.203125 4.972656 -7.359375 4.359375 -7.359375 C 3.671875 -7.359375 2.890625 -7.148438 2.015625 -6.734375 L 1.640625 -7.6875 C 2.046875 -7.90625 2.488281 -8.078125 2.96875 -8.203125 C 3.457031 -8.328125 3.945312 -8.390625 4.4375 -8.390625 C 5.414062 -8.390625 6.140625 -8.171875 6.609375 -7.734375 C 7.085938 -7.296875 7.328125 -6.597656 7.328125 -5.640625 L 7.328125 0 Z M 3.578125 -0.875 C 4.359375 -0.875 4.96875 -1.085938 5.40625 -1.515625 C 5.851562 -1.941406 6.078125 -2.539062 6.078125 -3.3125 L 6.078125 -4.0625 L 4.828125 -4.015625 C 3.835938 -3.972656 3.117188 -3.816406 2.671875 -3.546875 C 2.234375 -3.273438 2.015625 -2.847656 2.015625 -2.265625 C 2.015625 -1.816406 2.148438 -1.472656 2.421875 -1.234375 C 2.703125 -0.992188 3.085938 -0.875 3.578125 -0.875 Z M 3.578125 -0.875 "/></g></g></g><g fill="#353da8" fill-opacity="1"><g transform="translate(87.5522, 139.357251)"><g><path d="M 5.09375 -8.40625 C 5.457031 -8.40625 5.785156 -8.378906 6.078125 -8.328125 L 5.90625 -7.15625 C 5.5625 -7.238281 5.257812 -7.28125 5 -7.28125 C 4.332031 -7.28125 3.757812 -7.003906 3.28125 -6.453125 C 2.8125 -5.910156 2.578125 -5.238281 2.578125 -4.4375 L 2.578125 0 L 1.328125 0 L 1.328125 -8.265625 L 2.359375 -8.265625 L 2.5 -6.734375 L 2.5625 -6.734375 C 2.863281 -7.265625 3.226562 -7.675781 3.65625 -7.96875 C 4.09375 -8.257812 4.570312 -8.40625 5.09375 -8.40625 Z M 5.09375 -8.40625 "/></g></g></g><g fill="#353da8" fill-opacity="1"><g transform="translate(93.850336, 139.357251)"><g><path d="M 6.40625 0 L 6.15625 -1.171875 L 6.09375 -1.171875 C 5.6875 -0.660156 5.273438 -0.3125 4.859375 -0.125 C 4.453125 0.0625 3.941406 0.15625 3.328125 0.15625 C 2.515625 0.15625 1.875 -0.0507812 1.40625 -0.46875 C 0.9375 -0.894531 0.703125 -1.5 0.703125 -2.28125 C 0.703125 -3.945312 2.039062 -4.820312 4.71875 -4.90625 L 6.109375 -4.953125 L 6.109375 -5.46875 C 6.109375 -6.113281 5.96875 -6.585938 5.6875 -6.890625 C 5.414062 -7.203125 4.972656 -7.359375 4.359375 -7.359375 C 3.671875 -7.359375 2.890625 -7.148438 2.015625 -6.734375 L 1.640625 -7.6875 C 2.046875 -7.90625 2.488281 -8.078125 2.96875 -8.203125 C 3.457031 -8.328125 3.945312 -8.390625 4.4375 -8.390625 C 5.414062 -8.390625 6.140625 -8.171875 6.609375 -7.734375 C 7.085938 -7.296875 7.328125 -6.597656 7.328125 -5.640625 L 7.328125 0 Z M 3.578125 -0.875 C 4.359375 -0.875 4.96875 -1.085938 5.40625 -1.515625 C 5.851562 -1.941406 6.078125 -2.539062 6.078125 -3.3125 L 6.078125 -4.0625 L 4.828125 -4.015625 C 3.835938 -3.972656 3.117188 -3.816406 2.671875 -3.546875 C 2.234375 -3.273438 2.015625 -2.847656 2.015625 -2.265625 C 2.015625 -1.816406 2.148438 -1.472656 2.421875 -1.234375 C 2.703125 -0.992188 3.085938 -0.875 3.578125 -0.875 Z M 3.578125 -0.875 "/></g></g></g><g fill="#353da8" fill-opacity="1"><g transform="translate(102.431175, 139.357251)"><g/></g></g><g fill="#353da8" fill-opacity="1"><g transform="translate(106.439079, 139.357251)"><g><path d="M 2.578125 0 L 1.328125 0 L 1.328125 -11.734375 L 2.578125 -11.734375 Z M 2.578125 0 "/></g></g></g><g fill="#353da8" fill-opacity="1"><g transform="translate(110.341512, 139.357251)"><g><path d="M 6.40625 0 L 6.15625 -1.171875 L 6.09375 -1.171875 C 5.6875 -0.660156 5.273438 -0.3125 4.859375 -0.125 C 4.453125 0.0625 3.941406 0.15625 3.328125 0.15625 C 2.515625 0.15625 1.875 -0.0507812 1.40625 -0.46875 C 0.9375 -0.894531 0.703125 -1.5 0.703125 -2.28125 C 0.703125 -3.945312 2.039062 -4.820312 4.71875 -4.90625 L 6.109375 -4.953125 L 6.109375 -5.46875 C 6.109375 -6.113281 5.96875 -6.585938 5.6875 -6.890625 C 5.414062 -7.203125 4.972656 -7.359375 4.359375 -7.359375 C 3.671875 -7.359375 2.890625 -7.148438 2.015625 -6.734375 L 1.640625 -7.6875 C 2.046875 -7.90625 2.488281 -8.078125 2.96875 -8.203125 C 3.457031 -8.328125 3.945312 -8.390625 4.4375 -8.390625 C 5.414062 -8.390625 6.140625 -8.171875 6.609375 -7.734375 C 7.085938 -7.296875 7.328125 -6.597656 7.328125 -5.640625 L 7.328125 0 Z M 3.578125 -0.875 C 4.359375 -0.875 4.96875 -1.085938 5.40625 -1.515625 C 5.851562 -1.941406 6.078125 -2.539062 6.078125 -3.3125 L 6.078125 -4.0625 L 4.828125 -4.015625 C 3.835938 -3.972656 3.117188 -3.816406 2.671875 -3.546875 C 2.234375 -3.273438 2.015625 -2.847656 2.015625 -2.265625 C 2.015625 -1.816406 2.148438 -1.472656 2.421875 -1.234375 C 2.703125 -0.992188 3.085938 -0.875 3.578125 -0.875 Z M 3.578125 -0.875 "/></g></g></g><g fill="#353da8" fill-opacity="1"><g transform="translate(118.922352, 139.357251)"><g/></g></g><g fill="#353da8" fill-opacity="1"><g transform="translate(122.930256, 139.357251)"><g><path d="M 6.65625 -2.25 C 6.65625 -1.476562 6.367188 -0.882812 5.796875 -0.46875 C 5.222656 -0.0507812 4.421875 0.15625 3.390625 0.15625 C 2.285156 0.15625 1.429688 -0.0195312 0.828125 -0.375 L 0.828125 -1.53125 C 1.222656 -1.332031 1.644531 -1.171875 2.09375 -1.046875 C 2.550781 -0.929688 2.992188 -0.875 3.421875 -0.875 C 4.066406 -0.875 4.566406 -0.976562 4.921875 -1.1875 C 5.273438 -1.394531 5.453125 -1.710938 5.453125 -2.140625 C 5.453125 -2.460938 5.3125 -2.738281 5.03125 -2.96875 C 4.75 -3.195312 4.207031 -3.46875 3.40625 -3.78125 C 2.632812 -4.070312 2.085938 -4.320312 1.765625 -4.53125 C 1.441406 -4.75 1.195312 -4.992188 1.03125 -5.265625 C 0.875 -5.535156 0.796875 -5.859375 0.796875 -6.234375 C 0.796875 -6.910156 1.066406 -7.441406 1.609375 -7.828125 C 2.160156 -8.210938 2.914062 -8.40625 3.875 -8.40625 C 4.757812 -8.40625 5.628906 -8.226562 6.484375 -7.875 L 6.03125 -6.859375 C 5.207031 -7.191406 4.457031 -7.359375 3.78125 -7.359375 C 3.1875 -7.359375 2.738281 -7.265625 2.4375 -7.078125 C 2.132812 -6.898438 1.984375 -6.644531 1.984375 -6.3125 C 1.984375 -6.09375 2.039062 -5.90625 2.15625 -5.75 C 2.269531 -5.59375 2.453125 -5.441406 2.703125 -5.296875 C 2.953125 -5.160156 3.4375 -4.960938 4.15625 -4.703125 C 5.132812 -4.335938 5.796875 -3.972656 6.140625 -3.609375 C 6.484375 -3.253906 6.65625 -2.800781 6.65625 -2.25 Z M 6.65625 -2.25 "/></g></g></g><g fill="#353da8" fill-opacity="1"><g transform="translate(130.290643, 139.357251)"><g><path d="M 4.8125 0.15625 C 3.59375 0.15625 2.628906 -0.210938 1.921875 -0.953125 C 1.210938 -1.703125 0.859375 -2.738281 0.859375 -4.0625 C 0.859375 -5.394531 1.1875 -6.453125 1.84375 -7.234375 C 2.5 -8.015625 3.382812 -8.40625 4.5 -8.40625 C 5.53125 -8.40625 6.347656 -8.066406 6.953125 -7.390625 C 7.554688 -6.710938 7.859375 -5.816406 7.859375 -4.703125 L 7.859375 -3.90625 L 2.15625 -3.90625 C 2.1875 -2.9375 2.429688 -2.195312 2.890625 -1.6875 C 3.359375 -1.1875 4.015625 -0.9375 4.859375 -0.9375 C 5.753906 -0.9375 6.632812 -1.125 7.5 -1.5 L 7.5 -0.390625 C 7.0625 -0.191406 6.644531 -0.0507812 6.25 0.03125 C 5.851562 0.113281 5.375 0.15625 4.8125 0.15625 Z M 4.484375 -7.359375 C 3.816406 -7.359375 3.285156 -7.140625 2.890625 -6.703125 C 2.492188 -6.273438 2.257812 -5.679688 2.1875 -4.921875 L 6.515625 -4.921875 C 6.515625 -5.710938 6.335938 -6.316406 5.984375 -6.734375 C 5.628906 -7.148438 5.128906 -7.359375 4.484375 -7.359375 Z M 4.484375 -7.359375 "/></g></g></g><g fill="#353da8" fill-opacity="1"><g transform="translate(138.946819, 139.357251)"><g><path d="M 2.578125 0 L 1.328125 0 L 1.328125 -11.734375 L 2.578125 -11.734375 Z M 2.578125 0 "/></g></g></g><g fill="#353da8" fill-opacity="1"><g transform="translate(142.849252, 139.357251)"><g><path d="M 4.8125 0.15625 C 3.59375 0.15625 2.628906 -0.210938 1.921875 -0.953125 C 1.210938 -1.703125 0.859375 -2.738281 0.859375 -4.0625 C 0.859375 -5.394531 1.1875 -6.453125 1.84375 -7.234375 C 2.5 -8.015625 3.382812 -8.40625 4.5 -8.40625 C 5.53125 -8.40625 6.347656 -8.066406 6.953125 -7.390625 C 7.554688 -6.710938 7.859375 -5.816406 7.859375 -4.703125 L 7.859375 -3.90625 L 2.15625 -3.90625 C 2.1875 -2.9375 2.429688 -2.195312 2.890625 -1.6875 C 3.359375 -1.1875 4.015625 -0.9375 4.859375 -0.9375 C 5.753906 -0.9375 6.632812 -1.125 7.5 -1.5 L 7.5 -0.390625 C 7.0625 -0.191406 6.644531 -0.0507812 6.25 0.03125 C 5.851562 0.113281 5.375 0.15625 4.8125 0.15625 Z M 4.484375 -7.359375 C 3.816406 -7.359375 3.285156 -7.140625 2.890625 -6.703125 C 2.492188 -6.273438 2.257812 -5.679688 2.1875 -4.921875 L 6.515625 -4.921875 C 6.515625 -5.710938 6.335938 -6.316406 5.984375 -6.734375 C 5.628906 -7.148438 5.128906 -7.359375 4.484375 -7.359375 Z M 4.484375 -7.359375 "/></g></g></g><g fill="#353da8" fill-opacity="1"><g transform="translate(151.505428, 139.357251)"><g><path d="M 4.625 0.15625 C 3.425781 0.15625 2.5 -0.210938 1.84375 -0.953125 C 1.1875 -1.691406 0.859375 -2.734375 0.859375 -4.078125 C 0.859375 -5.460938 1.191406 -6.53125 1.859375 -7.28125 C 2.523438 -8.03125 3.476562 -8.40625 4.71875 -8.40625 C 5.113281 -8.40625 5.507812 -8.363281 5.90625 -8.28125 C 6.300781 -8.195312 6.613281 -8.097656 6.84375 -7.984375 L 6.453125 -6.921875 C 6.171875 -7.023438 5.867188 -7.113281 5.546875 -7.1875 C 5.222656 -7.257812 4.9375 -7.296875 4.6875 -7.296875 C 3 -7.296875 2.15625 -6.226562 2.15625 -4.09375 C 2.15625 -3.082031 2.359375 -2.300781 2.765625 -1.75 C 3.179688 -1.207031 3.789062 -0.9375 4.59375 -0.9375 C 5.28125 -0.9375 5.988281 -1.085938 6.71875 -1.390625 L 6.71875 -0.28125 C 6.164062 0.0078125 5.46875 0.15625 4.625 0.15625 Z M 4.625 0.15625 "/></g></g></g><g fill="#353da8" fill-opacity="1"><g transform="translate(158.850748, 139.357251)"><g><path d="M 4.625 0.15625 C 3.425781 0.15625 2.5 -0.210938 1.84375 -0.953125 C 1.1875 -1.691406 0.859375 -2.734375 0.859375 -4.078125 C 0.859375 -5.460938 1.191406 -6.53125 1.859375 -7.28125 C 2.523438 -8.03125 3.476562 -8.40625 4.71875 -8.40625 C 5.113281 -8.40625 5.507812 -8.363281 5.90625 -8.28125 C 6.300781 -8.195312 6.613281 -8.097656 6.84375 -7.984375 L 6.453125 -6.921875 C 6.171875 -7.023438 5.867188 -7.113281 5.546875 -7.1875 C 5.222656 -7.257812 4.9375 -7.296875 4.6875 -7.296875 C 3 -7.296875 2.15625 -6.226562 2.15625 -4.09375 C 2.15625 -3.082031 2.359375 -2.300781 2.765625 -1.75 C 3.179688 -1.207031 3.789062 -0.9375 4.59375 -0.9375 C 5.28125 -0.9375 5.988281 -1.085938 6.71875 -1.390625 L 6.71875 -0.28125 C 6.164062 0.0078125 5.46875 0.15625 4.625 0.15625 Z M 4.625 0.15625 "/></g></g></g><g fill="#353da8" fill-opacity="1"><g transform="translate(166.196068, 139.357251)"><g><path d="M 2.578125 0 L 1.328125 0 L 1.328125 -8.265625 L 2.578125 -8.265625 Z M 1.21875 -10.5 C 1.21875 -10.789062 1.285156 -11 1.421875 -11.125 C 1.566406 -11.257812 1.742188 -11.328125 1.953125 -11.328125 C 2.160156 -11.328125 2.335938 -11.257812 2.484375 -11.125 C 2.628906 -10.988281 2.703125 -10.78125 2.703125 -10.5 C 2.703125 -10.21875 2.628906 -10.003906 2.484375 -9.859375 C 2.335938 -9.722656 2.160156 -9.65625 1.953125 -9.65625 C 1.742188 -9.65625 1.566406 -9.722656 1.421875 -9.859375 C 1.285156 -10.003906 1.21875 -10.21875 1.21875 -10.5 Z M 1.21875 -10.5 "/></g></g></g><g fill="#353da8" fill-opacity="1"><g transform="translate(170.098501, 139.357251)"><g><path d="M 8.453125 -4.140625 C 8.453125 -2.796875 8.113281 -1.742188 7.4375 -0.984375 C 6.757812 -0.222656 5.820312 0.15625 4.625 0.15625 C 3.882812 0.15625 3.226562 -0.015625 2.65625 -0.359375 C 2.082031 -0.710938 1.640625 -1.210938 1.328125 -1.859375 C 1.015625 -2.503906 0.859375 -3.265625 0.859375 -4.140625 C 0.859375 -5.484375 1.195312 -6.53125 1.875 -7.28125 C 2.550781 -8.03125 3.488281 -8.40625 4.6875 -8.40625 C 5.84375 -8.40625 6.757812 -8.019531 7.4375 -7.25 C 8.113281 -6.488281 8.453125 -5.453125 8.453125 -4.140625 Z M 2.15625 -4.140625 C 2.15625 -3.085938 2.367188 -2.28125 2.796875 -1.71875 C 3.222656 -1.164062 3.84375 -0.890625 4.65625 -0.890625 C 5.476562 -0.890625 6.097656 -1.164062 6.515625 -1.71875 C 6.941406 -2.269531 7.15625 -3.078125 7.15625 -4.140625 C 7.15625 -5.191406 6.941406 -5.988281 6.515625 -6.53125 C 6.097656 -7.070312 5.472656 -7.34375 4.640625 -7.34375 C 3.828125 -7.34375 3.207031 -7.070312 2.78125 -6.53125 C 2.363281 -6 2.15625 -5.203125 2.15625 -4.140625 Z M 2.15625 -4.140625 "/></g></g></g><g fill="#353da8" fill-opacity="1"><g transform="translate(179.417639, 139.357251)"><g><path d="M 6.984375 0 L 6.984375 -5.34375 C 6.984375 -6.019531 6.828125 -6.519531 6.515625 -6.84375 C 6.210938 -7.175781 5.734375 -7.34375 5.078125 -7.34375 C 4.210938 -7.34375 3.578125 -7.109375 3.171875 -6.640625 C 2.773438 -6.179688 2.578125 -5.410156 2.578125 -4.328125 L 2.578125 0 L 1.328125 0 L 1.328125 -8.265625 L 2.34375 -8.265625 L 2.546875 -7.125 L 2.609375 -7.125 C 2.867188 -7.53125 3.226562 -7.84375 3.6875 -8.0625 C 4.144531 -8.289062 4.660156 -8.40625 5.234375 -8.40625 C 6.222656 -8.40625 6.96875 -8.164062 7.46875 -7.6875 C 7.976562 -7.207031 8.234375 -6.441406 8.234375 -5.390625 L 8.234375 0 Z M 6.984375 0 "/></g></g></g><g fill="#353da8" fill-opacity="1"><g transform="translate(188.88745, 139.357251)"><g/></g></g><g fill="#353da8" fill-opacity="1"><g transform="translate(192.895354, 139.357251)"><g><path d="M 6.953125 -1.109375 L 6.875 -1.109375 C 6.300781 -0.265625 5.4375 0.15625 4.28125 0.15625 C 3.207031 0.15625 2.367188 -0.210938 1.765625 -0.953125 C 1.160156 -1.691406 0.859375 -2.742188 0.859375 -4.109375 C 0.859375 -5.472656 1.160156 -6.53125 1.765625 -7.28125 C 2.367188 -8.03125 3.207031 -8.40625 4.28125 -8.40625 C 5.40625 -8.40625 6.265625 -8 6.859375 -7.1875 L 6.96875 -7.1875 L 6.90625 -7.78125 L 6.875 -8.359375 L 6.875 -11.734375 L 8.140625 -11.734375 L 8.140625 0 L 7.109375 0 Z M 4.453125 -0.890625 C 5.304688 -0.890625 5.921875 -1.125 6.296875 -1.59375 C 6.679688 -2.0625 6.875 -2.8125 6.875 -3.84375 L 6.875 -4.109375 C 6.875 -5.273438 6.679688 -6.109375 6.296875 -6.609375 C 5.910156 -7.109375 5.289062 -7.359375 4.4375 -7.359375 C 3.695312 -7.359375 3.128906 -7.070312 2.734375 -6.5 C 2.347656 -5.9375 2.15625 -5.132812 2.15625 -4.09375 C 2.15625 -3.039062 2.347656 -2.242188 2.734375 -1.703125 C 3.128906 -1.160156 3.703125 -0.890625 4.453125 -0.890625 Z M 4.453125 -0.890625 "/></g></g></g><g fill="#353da8" fill-opacity="1"><g transform="translate(202.350097, 139.357251)"><g><path d="M 4.8125 0.15625 C 3.59375 0.15625 2.628906 -0.210938 1.921875 -0.953125 C 1.210938 -1.703125 0.859375 -2.738281 0.859375 -4.0625 C 0.859375 -5.394531 1.1875 -6.453125 1.84375 -7.234375 C 2.5 -8.015625 3.382812 -8.40625 4.5 -8.40625 C 5.53125 -8.40625 6.347656 -8.066406 6.953125 -7.390625 C 7.554688 -6.710938 7.859375 -5.816406 7.859375 -4.703125 L 7.859375 -3.90625 L 2.15625 -3.90625 C 2.1875 -2.9375 2.429688 -2.195312 2.890625 -1.6875 C 3.359375 -1.1875 4.015625 -0.9375 4.859375 -0.9375 C 5.753906 -0.9375 6.632812 -1.125 7.5 -1.5 L 7.5 -0.390625 C 7.0625 -0.191406 6.644531 -0.0507812 6.25 0.03125 C 5.851562 0.113281 5.375 0.15625 4.8125 0.15625 Z M 4.484375 -7.359375 C 3.816406 -7.359375 3.285156 -7.140625 2.890625 -6.703125 C 2.492188 -6.273438 2.257812 -5.679688 2.1875 -4.921875 L 6.515625 -4.921875 C 6.515625 -5.710938 6.335938 -6.316406 5.984375 -6.734375 C 5.628906 -7.148438 5.128906 -7.359375 4.484375 -7.359375 Z M 4.484375 -7.359375 "/></g></g></g><g fill="#353da8" fill-opacity="1"><g transform="translate(69.516618, 160.726799)"><g><path d="M 5.171875 0.15625 C 4.628906 0.15625 4.132812 0.0546875 3.6875 -0.140625 C 3.25 -0.335938 2.878906 -0.644531 2.578125 -1.0625 L 2.484375 -1.0625 C 2.546875 -0.582031 2.578125 -0.125 2.578125 0.3125 L 2.578125 3.703125 L 1.328125 3.703125 L 1.328125 -8.265625 L 2.34375 -8.265625 L 2.515625 -7.125 L 2.578125 -7.125 C 2.898438 -7.582031 3.273438 -7.910156 3.703125 -8.109375 C 4.128906 -8.304688 4.617188 -8.40625 5.171875 -8.40625 C 6.265625 -8.40625 7.109375 -8.03125 7.703125 -7.28125 C 8.296875 -6.539062 8.59375 -5.492188 8.59375 -4.140625 C 8.59375 -2.785156 8.289062 -1.726562 7.6875 -0.96875 C 7.082031 -0.21875 6.242188 0.15625 5.171875 0.15625 Z M 4.984375 -7.34375 C 4.140625 -7.34375 3.53125 -7.109375 3.15625 -6.640625 C 2.78125 -6.179688 2.585938 -5.441406 2.578125 -4.421875 L 2.578125 -4.140625 C 2.578125 -2.972656 2.769531 -2.140625 3.15625 -1.640625 C 3.539062 -1.140625 4.160156 -0.890625 5.015625 -0.890625 C 5.734375 -0.890625 6.289062 -1.175781 6.6875 -1.75 C 7.09375 -2.332031 7.296875 -3.132812 7.296875 -4.15625 C 7.296875 -5.1875 7.09375 -5.972656 6.6875 -6.515625 C 6.289062 -7.066406 5.722656 -7.34375 4.984375 -7.34375 Z M 4.984375 -7.34375 "/></g></g></g><g fill="#353da8" fill-opacity="1"><g transform="translate(78.971361, 160.726799)"><g><path d="M 4.8125 0.15625 C 3.59375 0.15625 2.628906 -0.210938 1.921875 -0.953125 C 1.210938 -1.703125 0.859375 -2.738281 0.859375 -4.0625 C 0.859375 -5.394531 1.1875 -6.453125 1.84375 -7.234375 C 2.5 -8.015625 3.382812 -8.40625 4.5 -8.40625 C 5.53125 -8.40625 6.347656 -8.066406 6.953125 -7.390625 C 7.554688 -6.710938 7.859375 -5.816406 7.859375 -4.703125 L 7.859375 -3.90625 L 2.15625 -3.90625 C 2.1875 -2.9375 2.429688 -2.195312 2.890625 -1.6875 C 3.359375 -1.1875 4.015625 -0.9375 4.859375 -0.9375 C 5.753906 -0.9375 6.632812 -1.125 7.5 -1.5 L 7.5 -0.390625 C 7.0625 -0.191406 6.644531 -0.0507812 6.25 0.03125 C 5.851562 0.113281 5.375 0.15625 4.8125 0.15625 Z M 4.484375 -7.359375 C 3.816406 -7.359375 3.285156 -7.140625 2.890625 -6.703125 C 2.492188 -6.273438 2.257812 -5.679688 2.1875 -4.921875 L 6.515625 -4.921875 C 6.515625 -5.710938 6.335938 -6.316406 5.984375 -6.734375 C 5.628906 -7.148438 5.128906 -7.359375 4.484375 -7.359375 Z M 4.484375 -7.359375 "/></g></g></g><g fill="#353da8" fill-opacity="1"><g transform="translate(87.627537, 160.726799)"><g><path d="M 5.09375 -8.40625 C 5.457031 -8.40625 5.785156 -8.378906 6.078125 -8.328125 L 5.90625 -7.15625 C 5.5625 -7.238281 5.257812 -7.28125 5 -7.28125 C 4.332031 -7.28125 3.757812 -7.003906 3.28125 -6.453125 C 2.8125 -5.910156 2.578125 -5.238281 2.578125 -4.4375 L 2.578125 0 L 1.328125 0 L 1.328125 -8.265625 L 2.359375 -8.265625 L 2.5 -6.734375 L 2.5625 -6.734375 C 2.863281 -7.265625 3.226562 -7.675781 3.65625 -7.96875 C 4.09375 -8.257812 4.570312 -8.40625 5.09375 -8.40625 Z M 5.09375 -8.40625 "/></g></g></g><g fill="#353da8" fill-opacity="1"><g transform="translate(93.925672, 160.726799)"><g><path d="M 6.65625 -2.25 C 6.65625 -1.476562 6.367188 -0.882812 5.796875 -0.46875 C 5.222656 -0.0507812 4.421875 0.15625 3.390625 0.15625 C 2.285156 0.15625 1.429688 -0.0195312 0.828125 -0.375 L 0.828125 -1.53125 C 1.222656 -1.332031 1.644531 -1.171875 2.09375 -1.046875 C 2.550781 -0.929688 2.992188 -0.875 3.421875 -0.875 C 4.066406 -0.875 4.566406 -0.976562 4.921875 -1.1875 C 5.273438 -1.394531 5.453125 -1.710938 5.453125 -2.140625 C 5.453125 -2.460938 5.3125 -2.738281 5.03125 -2.96875 C 4.75 -3.195312 4.207031 -3.46875 3.40625 -3.78125 C 2.632812 -4.070312 2.085938 -4.320312 1.765625 -4.53125 C 1.441406 -4.75 1.195312 -4.992188 1.03125 -5.265625 C 0.875 -5.535156 0.796875 -5.859375 0.796875 -6.234375 C 0.796875 -6.910156 1.066406 -7.441406 1.609375 -7.828125 C 2.160156 -8.210938 2.914062 -8.40625 3.875 -8.40625 C 4.757812 -8.40625 5.628906 -8.226562 6.484375 -7.875 L 6.03125 -6.859375 C 5.207031 -7.191406 4.457031 -7.359375 3.78125 -7.359375 C 3.1875 -7.359375 2.738281 -7.265625 2.4375 -7.078125 C 2.132812 -6.898438 1.984375 -6.644531 1.984375 -6.3125 C 1.984375 -6.09375 2.039062 -5.90625 2.15625 -5.75 C 2.269531 -5.59375 2.453125 -5.441406 2.703125 -5.296875 C 2.953125 -5.160156 3.4375 -4.960938 4.15625 -4.703125 C 5.132812 -4.335938 5.796875 -3.972656 6.140625 -3.609375 C 6.484375 -3.253906 6.65625 -2.800781 6.65625 -2.25 Z M 6.65625 -2.25 "/></g></g></g><g fill="#353da8" fill-opacity="1"><g transform="translate(101.28606, 160.726799)"><g><path d="M 8.453125 -4.140625 C 8.453125 -2.796875 8.113281 -1.742188 7.4375 -0.984375 C 6.757812 -0.222656 5.820312 0.15625 4.625 0.15625 C 3.882812 0.15625 3.226562 -0.015625 2.65625 -0.359375 C 2.082031 -0.710938 1.640625 -1.210938 1.328125 -1.859375 C 1.015625 -2.503906 0.859375 -3.265625 0.859375 -4.140625 C 0.859375 -5.484375 1.195312 -6.53125 1.875 -7.28125 C 2.550781 -8.03125 3.488281 -8.40625 4.6875 -8.40625 C 5.84375 -8.40625 6.757812 -8.019531 7.4375 -7.25 C 8.113281 -6.488281 8.453125 -5.453125 8.453125 -4.140625 Z M 2.15625 -4.140625 C 2.15625 -3.085938 2.367188 -2.28125 2.796875 -1.71875 C 3.222656 -1.164062 3.84375 -0.890625 4.65625 -0.890625 C 5.476562 -0.890625 6.097656 -1.164062 6.515625 -1.71875 C 6.941406 -2.269531 7.15625 -3.078125 7.15625 -4.140625 C 7.15625 -5.191406 6.941406 -5.988281 6.515625 -6.53125 C 6.097656 -7.070312 5.472656 -7.34375 4.640625 -7.34375 C 3.828125 -7.34375 3.207031 -7.070312 2.78125 -6.53125 C 2.363281 -6 2.15625 -5.203125 2.15625 -4.140625 Z M 2.15625 -4.140625 "/></g></g></g><g fill="#353da8" fill-opacity="1"><g transform="translate(110.605197, 160.726799)"><g><path d="M 6.984375 0 L 6.984375 -5.34375 C 6.984375 -6.019531 6.828125 -6.519531 6.515625 -6.84375 C 6.210938 -7.175781 5.734375 -7.34375 5.078125 -7.34375 C 4.210938 -7.34375 3.578125 -7.109375 3.171875 -6.640625 C 2.773438 -6.179688 2.578125 -5.410156 2.578125 -4.328125 L 2.578125 0 L 1.328125 0 L 1.328125 -8.265625 L 2.34375 -8.265625 L 2.546875 -7.125 L 2.609375 -7.125 C 2.867188 -7.53125 3.226562 -7.84375 3.6875 -8.0625 C 4.144531 -8.289062 4.660156 -8.40625 5.234375 -8.40625 C 6.222656 -8.40625 6.96875 -8.164062 7.46875 -7.6875 C 7.976562 -7.207031 8.234375 -6.441406 8.234375 -5.390625 L 8.234375 0 Z M 6.984375 0 "/></g></g></g><g fill="#353da8" fill-opacity="1"><g transform="translate(120.075008, 160.726799)"><g><path d="M 6.40625 0 L 6.15625 -1.171875 L 6.09375 -1.171875 C 5.6875 -0.660156 5.273438 -0.3125 4.859375 -0.125 C 4.453125 0.0625 3.941406 0.15625 3.328125 0.15625 C 2.515625 0.15625 1.875 -0.0507812 1.40625 -0.46875 C 0.9375 -0.894531 0.703125 -1.5 0.703125 -2.28125 C 0.703125 -3.945312 2.039062 -4.820312 4.71875 -4.90625 L 6.109375 -4.953125 L 6.109375 -5.46875 C 6.109375 -6.113281 5.96875 -6.585938 5.6875 -6.890625 C 5.414062 -7.203125 4.972656 -7.359375 4.359375 -7.359375 C 3.671875 -7.359375 2.890625 -7.148438 2.015625 -6.734375 L 1.640625 -7.6875 C 2.046875 -7.90625 2.488281 -8.078125 2.96875 -8.203125 C 3.457031 -8.328125 3.945312 -8.390625 4.4375 -8.390625 C 5.414062 -8.390625 6.140625 -8.171875 6.609375 -7.734375 C 7.085938 -7.296875 7.328125 -6.597656 7.328125 -5.640625 L 7.328125 0 Z M 3.578125 -0.875 C 4.359375 -0.875 4.96875 -1.085938 5.40625 -1.515625 C 5.851562 -1.941406 6.078125 -2.539062 6.078125 -3.3125 L 6.078125 -4.0625 L 4.828125 -4.015625 C 3.835938 -3.972656 3.117188 -3.816406 2.671875 -3.546875 C 2.234375 -3.273438 2.015625 -2.847656 2.015625 -2.265625 C 2.015625 -1.816406 2.148438 -1.472656 2.421875 -1.234375 C 2.703125 -0.992188 3.085938 -0.875 3.578125 -0.875 Z M 3.578125 -0.875 "/></g></g></g><g fill="#353da8" fill-opacity="1"><g transform="translate(128.655847, 160.726799)"><g><path d="M 2.578125 0 L 1.328125 0 L 1.328125 -11.734375 L 2.578125 -11.734375 Z M 2.578125 0 "/></g></g></g><g fill="#353da8" fill-opacity="1"><g transform="translate(132.55828, 160.726799)"><g/></g></g><g fill="#353da8" fill-opacity="1"><g transform="translate(136.566184, 160.726799)"><g><path d="M 6.40625 0 L 6.15625 -1.171875 L 6.09375 -1.171875 C 5.6875 -0.660156 5.273438 -0.3125 4.859375 -0.125 C 4.453125 0.0625 3.941406 0.15625 3.328125 0.15625 C 2.515625 0.15625 1.875 -0.0507812 1.40625 -0.46875 C 0.9375 -0.894531 0.703125 -1.5 0.703125 -2.28125 C 0.703125 -3.945312 2.039062 -4.820312 4.71875 -4.90625 L 6.109375 -4.953125 L 6.109375 -5.46875 C 6.109375 -6.113281 5.96875 -6.585938 5.6875 -6.890625 C 5.414062 -7.203125 4.972656 -7.359375 4.359375 -7.359375 C 3.671875 -7.359375 2.890625 -7.148438 2.015625 -6.734375 L 1.640625 -7.6875 C 2.046875 -7.90625 2.488281 -8.078125 2.96875 -8.203125 C 3.457031 -8.328125 3.945312 -8.390625 4.4375 -8.390625 C 5.414062 -8.390625 6.140625 -8.171875 6.609375 -7.734375 C 7.085938 -7.296875 7.328125 -6.597656 7.328125 -5.640625 L 7.328125 0 Z M 3.578125 -0.875 C 4.359375 -0.875 4.96875 -1.085938 5.40625 -1.515625 C 5.851562 -1.941406 6.078125 -2.539062 6.078125 -3.3125 L 6.078125 -4.0625 L 4.828125 -4.015625 C 3.835938 -3.972656 3.117188 -3.816406 2.671875 -3.546875 C 2.234375 -3.273438 2.015625 -2.847656 2.015625 -2.265625 C 2.015625 -1.816406 2.148438 -1.472656 2.421875 -1.234375 C 2.703125 -0.992188 3.085938 -0.875 3.578125 -0.875 Z M 3.578125 -0.875 "/></g></g></g><g fill="#353da8" fill-opacity="1"><g transform="translate(145.147024, 160.726799)"><g><path d="M 2.578125 0 L 1.328125 0 L 1.328125 -11.734375 L 2.578125 -11.734375 Z M 2.578125 0 "/></g></g></g><g fill="#353da8" fill-opacity="1"><g transform="translate(149.049457, 160.726799)"><g/></g></g><g fill="#353da8" fill-opacity="1"><g transform="translate(153.057361, 160.726799)"><g><path d="M 6.40625 0 L 6.15625 -1.171875 L 6.09375 -1.171875 C 5.6875 -0.660156 5.273438 -0.3125 4.859375 -0.125 C 4.453125 0.0625 3.941406 0.15625 3.328125 0.15625 C 2.515625 0.15625 1.875 -0.0507812 1.40625 -0.46875 C 0.9375 -0.894531 0.703125 -1.5 0.703125 -2.28125 C 0.703125 -3.945312 2.039062 -4.820312 4.71875 -4.90625 L 6.109375 -4.953125 L 6.109375 -5.46875 C 6.109375 -6.113281 5.96875 -6.585938 5.6875 -6.890625 C 5.414062 -7.203125 4.972656 -7.359375 4.359375 -7.359375 C 3.671875 -7.359375 2.890625 -7.148438 2.015625 -6.734375 L 1.640625 -7.6875 C 2.046875 -7.90625 2.488281 -8.078125 2.96875 -8.203125 C 3.457031 -8.328125 3.945312 -8.390625 4.4375 -8.390625 C 5.414062 -8.390625 6.140625 -8.171875 6.609375 -7.734375 C 7.085938 -7.296875 7.328125 -6.597656 7.328125 -5.640625 L 7.328125 0 Z M 3.578125 -0.875 C 4.359375 -0.875 4.96875 -1.085938 5.40625 -1.515625 C 5.851562 -1.941406 6.078125 -2.539062 6.078125 -3.3125 L 6.078125 -4.0625 L 4.828125 -4.015625 C 3.835938 -3.972656 3.117188 -3.816406 2.671875 -3.546875 C 2.234375 -3.273438 2.015625 -2.847656 2.015625 -2.265625 C 2.015625 -1.816406 2.148438 -1.472656 2.421875 -1.234375 C 2.703125 -0.992188 3.085938 -0.875 3.578125 -0.875 Z M 3.578125 -0.875 "/></g></g></g><g fill="#353da8" fill-opacity="1"><g transform="translate(161.638201, 160.726799)"><g><path d="M 2.578125 0 L 1.328125 0 L 1.328125 -11.734375 L 2.578125 -11.734375 Z M 2.578125 0 "/></g></g></g><g fill="#353da8" fill-opacity="1"><g transform="translate(165.540634, 160.726799)"><g><path d="M 4.625 0.15625 C 3.425781 0.15625 2.5 -0.210938 1.84375 -0.953125 C 1.1875 -1.691406 0.859375 -2.734375 0.859375 -4.078125 C 0.859375 -5.460938 1.191406 -6.53125 1.859375 -7.28125 C 2.523438 -8.03125 3.476562 -8.40625 4.71875 -8.40625 C 5.113281 -8.40625 5.507812 -8.363281 5.90625 -8.28125 C 6.300781 -8.195312 6.613281 -8.097656 6.84375 -7.984375 L 6.453125 -6.921875 C 6.171875 -7.023438 5.867188 -7.113281 5.546875 -7.1875 C 5.222656 -7.257812 4.9375 -7.296875 4.6875 -7.296875 C 3 -7.296875 2.15625 -6.226562 2.15625 -4.09375 C 2.15625 -3.082031 2.359375 -2.300781 2.765625 -1.75 C 3.179688 -1.207031 3.789062 -0.9375 4.59375 -0.9375 C 5.28125 -0.9375 5.988281 -1.085938 6.71875 -1.390625 L 6.71875 -0.28125 C 6.164062 0.0078125 5.46875 0.15625 4.625 0.15625 Z M 4.625 0.15625 "/></g></g></g><g fill="#353da8" fill-opacity="1"><g transform="translate(172.885954, 160.726799)"><g><path d="M 6.40625 0 L 6.15625 -1.171875 L 6.09375 -1.171875 C 5.6875 -0.660156 5.273438 -0.3125 4.859375 -0.125 C 4.453125 0.0625 3.941406 0.15625 3.328125 0.15625 C 2.515625 0.15625 1.875 -0.0507812 1.40625 -0.46875 C 0.9375 -0.894531 0.703125 -1.5 0.703125 -2.28125 C 0.703125 -3.945312 2.039062 -4.820312 4.71875 -4.90625 L 6.109375 -4.953125 L 6.109375 -5.46875 C 6.109375 -6.113281 5.96875 -6.585938 5.6875 -6.890625 C 5.414062 -7.203125 4.972656 -7.359375 4.359375 -7.359375 C 3.671875 -7.359375 2.890625 -7.148438 2.015625 -6.734375 L 1.640625 -7.6875 C 2.046875 -7.90625 2.488281 -8.078125 2.96875 -8.203125 C 3.457031 -8.328125 3.945312 -8.390625 4.4375 -8.390625 C 5.414062 -8.390625 6.140625 -8.171875 6.609375 -7.734375 C 7.085938 -7.296875 7.328125 -6.597656 7.328125 -5.640625 L 7.328125 0 Z M 3.578125 -0.875 C 4.359375 -0.875 4.96875 -1.085938 5.40625 -1.515625 C 5.851562 -1.941406 6.078125 -2.539062 6.078125 -3.3125 L 6.078125 -4.0625 L 4.828125 -4.015625 C 3.835938 -3.972656 3.117188 -3.816406 2.671875 -3.546875 C 2.234375 -3.273438 2.015625 -2.847656 2.015625 -2.265625 C 2.015625 -1.816406 2.148438 -1.472656 2.421875 -1.234375 C 2.703125 -0.992188 3.085938 -0.875 3.578125 -0.875 Z M 3.578125 -0.875 "/></g></g></g><g fill="#353da8" fill-opacity="1"><g transform="translate(181.466793, 160.726799)"><g><path d="M 6.984375 0 L 6.984375 -5.34375 C 6.984375 -6.019531 6.828125 -6.519531 6.515625 -6.84375 C 6.210938 -7.175781 5.734375 -7.34375 5.078125 -7.34375 C 4.210938 -7.34375 3.578125 -7.109375 3.171875 -6.640625 C 2.773438 -6.179688 2.578125 -5.410156 2.578125 -4.328125 L 2.578125 0 L 1.328125 0 L 1.328125 -8.265625 L 2.34375 -8.265625 L 2.546875 -7.125 L 2.609375 -7.125 C 2.867188 -7.53125 3.226562 -7.84375 3.6875 -8.0625 C 4.144531 -8.289062 4.660156 -8.40625 5.234375 -8.40625 C 6.222656 -8.40625 6.96875 -8.164062 7.46875 -7.6875 C 7.976562 -7.207031 8.234375 -6.441406 8.234375 -5.390625 L 8.234375 0 Z M 6.984375 0 "/></g></g></g><g fill="#353da8" fill-opacity="1"><g transform="translate(190.936604, 160.726799)"><g><path d="M 4.625 0.15625 C 3.425781 0.15625 2.5 -0.210938 1.84375 -0.953125 C 1.1875 -1.691406 0.859375 -2.734375 0.859375 -4.078125 C 0.859375 -5.460938 1.191406 -6.53125 1.859375 -7.28125 C 2.523438 -8.03125 3.476562 -8.40625 4.71875 -8.40625 C 5.113281 -8.40625 5.507812 -8.363281 5.90625 -8.28125 C 6.300781 -8.195312 6.613281 -8.097656 6.84375 -7.984375 L 6.453125 -6.921875 C 6.171875 -7.023438 5.867188 -7.113281 5.546875 -7.1875 C 5.222656 -7.257812 4.9375 -7.296875 4.6875 -7.296875 C 3 -7.296875 2.15625 -6.226562 2.15625 -4.09375 C 2.15625 -3.082031 2.359375 -2.300781 2.765625 -1.75 C 3.179688 -1.207031 3.789062 -0.9375 4.59375 -0.9375 C 5.28125 -0.9375 5.988281 -1.085938 6.71875 -1.390625 L 6.71875 -0.28125 C 6.164062 0.0078125 5.46875 0.15625 4.625 0.15625 Z M 4.625 0.15625 "/></g></g></g><g fill="#353da8" fill-opacity="1"><g transform="translate(198.281924, 160.726799)"><g><path d="M 4.8125 0.15625 C 3.59375 0.15625 2.628906 -0.210938 1.921875 -0.953125 C 1.210938 -1.703125 0.859375 -2.738281 0.859375 -4.0625 C 0.859375 -5.394531 1.1875 -6.453125 1.84375 -7.234375 C 2.5 -8.015625 3.382812 -8.40625 4.5 -8.40625 C 5.53125 -8.40625 6.347656 -8.066406 6.953125 -7.390625 C 7.554688 -6.710938 7.859375 -5.816406 7.859375 -4.703125 L 7.859375 -3.90625 L 2.15625 -3.90625 C 2.1875 -2.9375 2.429688 -2.195312 2.890625 -1.6875 C 3.359375 -1.1875 4.015625 -0.9375 4.859375 -0.9375 C 5.753906 -0.9375 6.632812 -1.125 7.5 -1.5 L 7.5 -0.390625 C 7.0625 -0.191406 6.644531 -0.0507812 6.25 0.03125 C 5.851562 0.113281 5.375 0.15625 4.8125 0.15625 Z M 4.484375 -7.359375 C 3.816406 -7.359375 3.285156 -7.140625 2.890625 -6.703125 C 2.492188 -6.273438 2.257812 -5.679688 2.1875 -4.921875 L 6.515625 -4.921875 C 6.515625 -5.710938 6.335938 -6.316406 5.984375 -6.734375 C 5.628906 -7.148438 5.128906 -7.359375 4.484375 -7.359375 Z M 4.484375 -7.359375 "/></g></g></g><g fill="#353da8" fill-opacity="1"><g transform="translate(69.516618, 182.096346)"><g><path d="M 6.953125 -1.109375 L 6.875 -1.109375 C 6.300781 -0.265625 5.4375 0.15625 4.28125 0.15625 C 3.207031 0.15625 2.367188 -0.210938 1.765625 -0.953125 C 1.160156 -1.691406 0.859375 -2.742188 0.859375 -4.109375 C 0.859375 -5.472656 1.160156 -6.53125 1.765625 -7.28125 C 2.367188 -8.03125 3.207031 -8.40625 4.28125 -8.40625 C 5.40625 -8.40625 6.265625 -8 6.859375 -7.1875 L 6.96875 -7.1875 L 6.90625 -7.78125 L 6.875 -8.359375 L 6.875 -11.734375 L 8.140625 -11.734375 L 8.140625 0 L 7.109375 0 Z M 4.453125 -0.890625 C 5.304688 -0.890625 5.921875 -1.125 6.296875 -1.59375 C 6.679688 -2.0625 6.875 -2.8125 6.875 -3.84375 L 6.875 -4.109375 C 6.875 -5.273438 6.679688 -6.109375 6.296875 -6.609375 C 5.910156 -7.109375 5.289062 -7.359375 4.4375 -7.359375 C 3.695312 -7.359375 3.128906 -7.070312 2.734375 -6.5 C 2.347656 -5.9375 2.15625 -5.132812 2.15625 -4.09375 C 2.15625 -3.039062 2.347656 -2.242188 2.734375 -1.703125 C 3.128906 -1.160156 3.703125 -0.890625 4.453125 -0.890625 Z M 4.453125 -0.890625 "/></g></g></g><g fill="#353da8" fill-opacity="1"><g transform="translate(78.971361, 182.096346)"><g><path d="M 4.8125 0.15625 C 3.59375 0.15625 2.628906 -0.210938 1.921875 -0.953125 C 1.210938 -1.703125 0.859375 -2.738281 0.859375 -4.0625 C 0.859375 -5.394531 1.1875 -6.453125 1.84375 -7.234375 C 2.5 -8.015625 3.382812 -8.40625 4.5 -8.40625 C 5.53125 -8.40625 6.347656 -8.066406 6.953125 -7.390625 C 7.554688 -6.710938 7.859375 -5.816406 7.859375 -4.703125 L 7.859375 -3.90625 L 2.15625 -3.90625 C 2.1875 -2.9375 2.429688 -2.195312 2.890625 -1.6875 C 3.359375 -1.1875 4.015625 -0.9375 4.859375 -0.9375 C 5.753906 -0.9375 6.632812 -1.125 7.5 -1.5 L 7.5 -0.390625 C 7.0625 -0.191406 6.644531 -0.0507812 6.25 0.03125 C 5.851562 0.113281 5.375 0.15625 4.8125 0.15625 Z M 4.484375 -7.359375 C 3.816406 -7.359375 3.285156 -7.140625 2.890625 -6.703125 C 2.492188 -6.273438 2.257812 -5.679688 2.1875 -4.921875 L 6.515625 -4.921875 C 6.515625 -5.710938 6.335938 -6.316406 5.984375 -6.734375 C 5.628906 -7.148438 5.128906 -7.359375 4.484375 -7.359375 Z M 4.484375 -7.359375 "/></g></g></g><g fill="#353da8" fill-opacity="1"><g transform="translate(87.627537, 182.096346)"><g/></g></g><g fill="#353da8" fill-opacity="1"><g transform="translate(91.635441, 182.096346)"><g><path d="M 4 -0.875 C 4.21875 -0.875 4.425781 -0.890625 4.625 -0.921875 C 4.832031 -0.960938 5 -1 5.125 -1.03125 L 5.125 -0.078125 C 4.988281 -0.015625 4.785156 0.0351562 4.515625 0.078125 C 4.253906 0.128906 4.019531 0.15625 3.8125 0.15625 C 2.21875 0.15625 1.421875 -0.6875 1.421875 -2.375 L 1.421875 -7.296875 L 0.234375 -7.296875 L 0.234375 -7.890625 L 1.421875 -8.40625 L 1.9375 -10.171875 L 2.671875 -10.171875 L 2.671875 -8.265625 L 5.0625 -8.265625 L 5.0625 -7.296875 L 2.671875 -7.296875 L 2.671875 -2.421875 C 2.671875 -1.929688 2.785156 -1.550781 3.015625 -1.28125 C 3.253906 -1.007812 3.582031 -0.875 4 -0.875 Z M 4 -0.875 "/></g></g></g><g fill="#353da8" fill-opacity="1"><g transform="translate(97.08228, 182.096346)"><g><path d="M 2.5 -8.265625 L 2.5 -2.90625 C 2.5 -2.226562 2.648438 -1.722656 2.953125 -1.390625 C 3.265625 -1.054688 3.75 -0.890625 4.40625 -0.890625 C 5.269531 -0.890625 5.898438 -1.125 6.296875 -1.59375 C 6.691406 -2.070312 6.890625 -2.847656 6.890625 -3.921875 L 6.890625 -8.265625 L 8.140625 -8.265625 L 8.140625 0 L 7.109375 0 L 6.9375 -1.109375 L 6.859375 -1.109375 C 6.609375 -0.703125 6.253906 -0.390625 5.796875 -0.171875 C 5.347656 0.046875 4.832031 0.15625 4.25 0.15625 C 3.238281 0.15625 2.484375 -0.0820312 1.984375 -0.5625 C 1.484375 -1.039062 1.234375 -1.804688 1.234375 -2.859375 L 1.234375 -8.265625 Z M 2.5 -8.265625 "/></g></g></g><g fill="#353da8" fill-opacity="1"><g transform="translate(106.552091, 182.096346)"><g><path d="M 6.65625 -2.25 C 6.65625 -1.476562 6.367188 -0.882812 5.796875 -0.46875 C 5.222656 -0.0507812 4.421875 0.15625 3.390625 0.15625 C 2.285156 0.15625 1.429688 -0.0195312 0.828125 -0.375 L 0.828125 -1.53125 C 1.222656 -1.332031 1.644531 -1.171875 2.09375 -1.046875 C 2.550781 -0.929688 2.992188 -0.875 3.421875 -0.875 C 4.066406 -0.875 4.566406 -0.976562 4.921875 -1.1875 C 5.273438 -1.394531 5.453125 -1.710938 5.453125 -2.140625 C 5.453125 -2.460938 5.3125 -2.738281 5.03125 -2.96875 C 4.75 -3.195312 4.207031 -3.46875 3.40625 -3.78125 C 2.632812 -4.070312 2.085938 -4.320312 1.765625 -4.53125 C 1.441406 -4.75 1.195312 -4.992188 1.03125 -5.265625 C 0.875 -5.535156 0.796875 -5.859375 0.796875 -6.234375 C 0.796875 -6.910156 1.066406 -7.441406 1.609375 -7.828125 C 2.160156 -8.210938 2.914062 -8.40625 3.875 -8.40625 C 4.757812 -8.40625 5.628906 -8.226562 6.484375 -7.875 L 6.03125 -6.859375 C 5.207031 -7.191406 4.457031 -7.359375 3.78125 -7.359375 C 3.1875 -7.359375 2.738281 -7.265625 2.4375 -7.078125 C 2.132812 -6.898438 1.984375 -6.644531 1.984375 -6.3125 C 1.984375 -6.09375 2.039062 -5.90625 2.15625 -5.75 C 2.269531 -5.59375 2.453125 -5.441406 2.703125 -5.296875 C 2.953125 -5.160156 3.4375 -4.960938 4.15625 -4.703125 C 5.132812 -4.335938 5.796875 -3.972656 6.140625 -3.609375 C 6.484375 -3.253906 6.65625 -2.800781 6.65625 -2.25 Z M 6.65625 -2.25 "/></g></g></g><g fill="#353da8" fill-opacity="1"><g transform="translate(113.912478, 182.096346)"><g/></g></g><g fill="#353da8" fill-opacity="1"><g transform="translate(117.920383, 182.096346)"><g><path d="M 11.859375 0 L 11.859375 -5.375 C 11.859375 -6.03125 11.71875 -6.519531 11.4375 -6.84375 C 11.15625 -7.175781 10.71875 -7.34375 10.125 -7.34375 C 9.34375 -7.34375 8.765625 -7.117188 8.390625 -6.671875 C 8.023438 -6.222656 7.84375 -5.535156 7.84375 -4.609375 L 7.84375 0 L 6.59375 0 L 6.59375 -5.375 C 6.59375 -6.03125 6.453125 -6.519531 6.171875 -6.84375 C 5.890625 -7.175781 5.445312 -7.34375 4.84375 -7.34375 C 4.0625 -7.34375 3.488281 -7.109375 3.125 -6.640625 C 2.757812 -6.171875 2.578125 -5.398438 2.578125 -4.328125 L 2.578125 0 L 1.328125 0 L 1.328125 -8.265625 L 2.34375 -8.265625 L 2.546875 -7.125 L 2.609375 -7.125 C 2.847656 -7.53125 3.179688 -7.84375 3.609375 -8.0625 C 4.035156 -8.289062 4.515625 -8.40625 5.046875 -8.40625 C 6.335938 -8.40625 7.179688 -7.941406 7.578125 -7.015625 L 7.640625 -7.015625 C 7.890625 -7.441406 8.25 -7.78125 8.71875 -8.03125 C 9.1875 -8.28125 9.71875 -8.40625 10.3125 -8.40625 C 11.25 -8.40625 11.945312 -8.164062 12.40625 -7.6875 C 12.875 -7.207031 13.109375 -6.441406 13.109375 -5.390625 L 13.109375 0 Z M 11.859375 0 "/></g></g></g><g fill="#353da8" fill-opacity="1"><g transform="translate(132.272001, 182.096346)"><g><path d="M 6.40625 0 L 6.15625 -1.171875 L 6.09375 -1.171875 C 5.6875 -0.660156 5.273438 -0.3125 4.859375 -0.125 C 4.453125 0.0625 3.941406 0.15625 3.328125 0.15625 C 2.515625 0.15625 1.875 -0.0507812 1.40625 -0.46875 C 0.9375 -0.894531 0.703125 -1.5 0.703125 -2.28125 C 0.703125 -3.945312 2.039062 -4.820312 4.71875 -4.90625 L 6.109375 -4.953125 L 6.109375 -5.46875 C 6.109375 -6.113281 5.96875 -6.585938 5.6875 -6.890625 C 5.414062 -7.203125 4.972656 -7.359375 4.359375 -7.359375 C 3.671875 -7.359375 2.890625 -7.148438 2.015625 -6.734375 L 1.640625 -7.6875 C 2.046875 -7.90625 2.488281 -8.078125 2.96875 -8.203125 C 3.457031 -8.328125 3.945312 -8.390625 4.4375 -8.390625 C 5.414062 -8.390625 6.140625 -8.171875 6.609375 -7.734375 C 7.085938 -7.296875 7.328125 -6.597656 7.328125 -5.640625 L 7.328125 0 Z M 3.578125 -0.875 C 4.359375 -0.875 4.96875 -1.085938 5.40625 -1.515625 C 5.851562 -1.941406 6.078125 -2.539062 6.078125 -3.3125 L 6.078125 -4.0625 L 4.828125 -4.015625 C 3.835938 -3.972656 3.117188 -3.816406 2.671875 -3.546875 C 2.234375 -3.273438 2.015625 -2.847656 2.015625 -2.265625 C 2.015625 -1.816406 2.148438 -1.472656 2.421875 -1.234375 C 2.703125 -0.992188 3.085938 -0.875 3.578125 -0.875 Z M 3.578125 -0.875 "/></g></g></g><g fill="#353da8" fill-opacity="1"><g transform="translate(140.852841, 182.096346)"><g><path d="M 6.984375 0 L 6.984375 -5.34375 C 6.984375 -6.019531 6.828125 -6.519531 6.515625 -6.84375 C 6.210938 -7.175781 5.734375 -7.34375 5.078125 -7.34375 C 4.210938 -7.34375 3.578125 -7.109375 3.171875 -6.640625 C 2.773438 -6.179688 2.578125 -5.410156 2.578125 -4.328125 L 2.578125 0 L 1.328125 0 L 1.328125 -8.265625 L 2.34375 -8.265625 L 2.546875 -7.125 L 2.609375 -7.125 C 2.867188 -7.53125 3.226562 -7.84375 3.6875 -8.0625 C 4.144531 -8.289062 4.660156 -8.40625 5.234375 -8.40625 C 6.222656 -8.40625 6.96875 -8.164062 7.46875 -7.6875 C 7.976562 -7.207031 8.234375 -6.441406 8.234375 -5.390625 L 8.234375 0 Z M 6.984375 0 "/></g></g></g><g fill="#353da8" fill-opacity="1"><g transform="translate(150.322651, 182.096346)"><g><path d="M 8.453125 -4.140625 C 8.453125 -2.796875 8.113281 -1.742188 7.4375 -0.984375 C 6.757812 -0.222656 5.820312 0.15625 4.625 0.15625 C 3.882812 0.15625 3.226562 -0.015625 2.65625 -0.359375 C 2.082031 -0.710938 1.640625 -1.210938 1.328125 -1.859375 C 1.015625 -2.503906 0.859375 -3.265625 0.859375 -4.140625 C 0.859375 -5.484375 1.195312 -6.53125 1.875 -7.28125 C 2.550781 -8.03125 3.488281 -8.40625 4.6875 -8.40625 C 5.84375 -8.40625 6.757812 -8.019531 7.4375 -7.25 C 8.113281 -6.488281 8.453125 -5.453125 8.453125 -4.140625 Z M 2.15625 -4.140625 C 2.15625 -3.085938 2.367188 -2.28125 2.796875 -1.71875 C 3.222656 -1.164062 3.84375 -0.890625 4.65625 -0.890625 C 5.476562 -0.890625 6.097656 -1.164062 6.515625 -1.71875 C 6.941406 -2.269531 7.15625 -3.078125 7.15625 -4.140625 C 7.15625 -5.191406 6.941406 -5.988281 6.515625 -6.53125 C 6.097656 -7.070312 5.472656 -7.34375 4.640625 -7.34375 C 3.828125 -7.34375 3.207031 -7.070312 2.78125 -6.53125 C 2.363281 -6 2.15625 -5.203125 2.15625 -4.140625 Z M 2.15625 -4.140625 "/></g></g></g><g fill="#353da8" fill-opacity="1"><g transform="translate(159.641789, 182.096346)"><g><path d="M 6.65625 -2.25 C 6.65625 -1.476562 6.367188 -0.882812 5.796875 -0.46875 C 5.222656 -0.0507812 4.421875 0.15625 3.390625 0.15625 C 2.285156 0.15625 1.429688 -0.0195312 0.828125 -0.375 L 0.828125 -1.53125 C 1.222656 -1.332031 1.644531 -1.171875 2.09375 -1.046875 C 2.550781 -0.929688 2.992188 -0.875 3.421875 -0.875 C 4.066406 -0.875 4.566406 -0.976562 4.921875 -1.1875 C 5.273438 -1.394531 5.453125 -1.710938 5.453125 -2.140625 C 5.453125 -2.460938 5.3125 -2.738281 5.03125 -2.96875 C 4.75 -3.195312 4.207031 -3.46875 3.40625 -3.78125 C 2.632812 -4.070312 2.085938 -4.320312 1.765625 -4.53125 C 1.441406 -4.75 1.195312 -4.992188 1.03125 -5.265625 C 0.875 -5.535156 0.796875 -5.859375 0.796875 -6.234375 C 0.796875 -6.910156 1.066406 -7.441406 1.609375 -7.828125 C 2.160156 -8.210938 2.914062 -8.40625 3.875 -8.40625 C 4.757812 -8.40625 5.628906 -8.226562 6.484375 -7.875 L 6.03125 -6.859375 C 5.207031 -7.191406 4.457031 -7.359375 3.78125 -7.359375 C 3.1875 -7.359375 2.738281 -7.265625 2.4375 -7.078125 C 2.132812 -6.898438 1.984375 -6.644531 1.984375 -6.3125 C 1.984375 -6.09375 2.039062 -5.90625 2.15625 -5.75 C 2.269531 -5.59375 2.453125 -5.441406 2.703125 -5.296875 C 2.953125 -5.160156 3.4375 -4.960938 4.15625 -4.703125 C 5.132812 -4.335938 5.796875 -3.972656 6.140625 -3.609375 C 6.484375 -3.253906 6.65625 -2.800781 6.65625 -2.25 Z M 6.65625 -2.25 "/></g></g></g><g fill="#353da8" fill-opacity="1"><g transform="translate(167.002176, 182.096346)"><g><path d="M 1.140625 -0.796875 C 1.140625 -1.128906 1.21875 -1.382812 1.375 -1.5625 C 1.53125 -1.738281 1.75 -1.828125 2.03125 -1.828125 C 2.320312 -1.828125 2.550781 -1.738281 2.71875 -1.5625 C 2.882812 -1.382812 2.96875 -1.128906 2.96875 -0.796875 C 2.96875 -0.472656 2.882812 -0.222656 2.71875 -0.046875 C 2.550781 0.128906 2.320312 0.21875 2.03125 0.21875 C 1.78125 0.21875 1.566406 0.140625 1.390625 -0.015625 C 1.222656 -0.171875 1.140625 -0.429688 1.140625 -0.796875 Z M 1.140625 -0.796875 "/></g></g></g></svg>