<svg xmlns="http://www.w3.org/2000/svg" xmlns:xlink="http://www.w3.org/1999/xlink" width="600" zoomAndPan="magnify" viewBox="0 0 450 299.999988" height="400" preserveAspectRatio="xMidYMid meet" version="1.0"><defs><g/><clipPath id="df868b7d13"><path d="M 360 124 L 392.398438 124 L 392.398438 194 L 360 194 Z M 360 124 " clip-rule="nonzero"/></clipPath><clipPath id="32f8784af7"><path d="M 324 160 L 350 160 L 350 209.253906 L 324 209.253906 Z M 324 160 " clip-rule="nonzero"/></clipPath><clipPath id="fd6f4f660f"><path d="M 279.148438 107 L 365 107 L 365 179 L 279.148438 179 Z M 279.148438 107 " clip-rule="nonzero"/></clipPath><clipPath id="ac47d91be0"><path d="M 279.042969 201.207031 L 303.789062 201.207031 L 303.789062 224.375 L 279.042969 224.375 Z M 279.042969 201.207031 " clip-rule="nonzero"/></clipPath><clipPath id="876978c87c"><path d="M 324.683594 212.792969 L 346.710938 212.792969 L 346.710938 235.957031 L 324.683594 235.957031 Z M 324.683594 212.792969 " clip-rule="nonzero"/></clipPath><clipPath id="3f0526f704"><path d="M 367.710938 201.207031 L 392.457031 201.207031 L 392.457031 224.375 L 367.710938 224.375 Z M 367.710938 201.207031 " clip-rule="nonzero"/></clipPath><clipPath id="dc72143b3f"><path d="M 158 43.039062 L 180.558594 43.039062 L 180.558594 64.707031 L 158 64.707031 Z M 158 43.039062 " clip-rule="nonzero"/></clipPath><clipPath id="a08a1ee1bf"><path d="M 152.699219 44.695312 L 177 44.695312 L 177 69.054688 L 152.699219 69.054688 Z M 152.699219 44.695312 " clip-rule="nonzero"/></clipPath><clipPath id="d65c7a0a00"><path d="M 20.25 36.023438 L 38.25 36.023438 L 38.25 54.042969 L 20.25 54.042969 Z M 20.25 36.023438 " clip-rule="nonzero"/></clipPath><clipPath id="1d815e327f"><path d="M 29.25 47.246094 L 47.25 47.246094 L 47.25 65.261719 L 29.25 65.261719 Z M 29.25 47.246094 " clip-rule="nonzero"/></clipPath><clipPath id="22f9aaecb3"><path d="M 16.507812 113 L 35 113 L 35 132 L 16.507812 132 Z M 16.507812 113 " clip-rule="nonzero"/></clipPath><clipPath id="dd17e2c33f"><path d="M 16.507812 160 L 35 160 L 35 179.253906 L 16.507812 179.253906 Z M 16.507812 160 " clip-rule="nonzero"/></clipPath><clipPath id="c2ac4e330b"><path d="M 16.507812 136 L 35 136 L 35 156 L 16.507812 156 Z M 16.507812 136 " clip-rule="nonzero"/></clipPath><clipPath id="35a8c5b781"><path d="M 18 103.503906 L 42 103.503906 L 42 129 L 18 129 Z M 18 103.503906 " clip-rule="nonzero"/></clipPath><clipPath id="2f7218a8ef"><path d="M 19 125 L 42.007812 125 L 42.007812 153 L 19 153 Z M 19 125 " clip-rule="nonzero"/></clipPath><clipPath id="73804dc2a9"><path d="M 417.296875 36.773438 L 435.296875 36.773438 L 435.296875 54.792969 L 417.296875 54.792969 Z M 417.296875 36.773438 " clip-rule="nonzero"/></clipPath><clipPath id="561f39c6e3"><path d="M 406.796875 47.246094 L 424.796875 47.246094 L 424.796875 65.261719 L 406.796875 65.261719 Z M 406.796875 47.246094 " clip-rule="nonzero"/></clipPath></defs><path fill="#353da8" d="M 359.167969 158.683594 L 359.71875 153.699219 C 359.363281 154.113281 359.003906 154.519531 358.625 154.914062 L 359.167969 158.683594 " fill-opacity="1" fill-rule="nonzero"/><g clip-path="url(#df868b7d13)"><path fill="#353da8" d="M 387.949219 128.789062 L 387.949219 128.785156 C 387.871094 126.972656 386.367188 125.554688 384.570312 125.550781 L 378.3125 124.949219 C 376.539062 125.929688 374.5 126.492188 372.332031 126.492188 C 370.164062 126.492188 368.125 125.929688 366.351562 124.949219 L 365.460938 125.035156 C 366.820312 129.246094 367.230469 133.742188 366.621094 138.253906 C 365.90625 143.527344 363.851562 148.402344 360.6875 152.507812 L 360.6875 169.191406 L 361.132812 172.277344 L 361.140625 172.421875 C 361.179688 173.34375 361.011719 174.230469 360.6875 175.046875 L 360.6875 187.933594 C 360.6875 190.820312 363.046875 193.179688 365.933594 193.179688 C 368.816406 193.179688 371.175781 190.820312 371.175781 187.933594 L 371.175781 165.71875 L 373.488281 165.71875 L 373.488281 187.933594 C 373.488281 190.820312 375.847656 193.179688 378.730469 193.179688 C 381.617188 193.179688 383.976562 190.820312 383.976562 187.933594 L 383.976562 144.894531 L 385.578125 159.429688 L 385.601562 159.652344 C 385.804688 161.507812 387.476562 162.84375 389.332031 162.640625 C 391.105469 162.445312 392.410156 160.894531 392.335938 159.136719 L 387.949219 128.789062 " fill-opacity="1" fill-rule="nonzero"/></g><path fill="#353da8" d="M 372.332031 123.523438 C 377.535156 123.523438 381.753906 119.308594 381.753906 114.101562 C 381.753906 108.898438 377.535156 104.679688 372.332031 104.679688 C 367.128906 104.679688 362.910156 108.898438 362.910156 114.101562 C 362.910156 119.308594 367.128906 123.523438 372.332031 123.523438 " fill-opacity="1" fill-rule="nonzero"/><path fill="#353da8" d="M 301.75 187.933594 C 301.75 190.820312 304.109375 193.179688 306.996094 193.179688 C 309.878906 193.179688 312.238281 190.820312 312.238281 187.933594 L 312.238281 163.441406 L 301.75 171.425781 L 301.75 187.933594 " fill-opacity="1" fill-rule="nonzero"/><path fill="#353da8" d="M 288.953125 181.105469 L 288.953125 187.933594 C 288.953125 190.820312 291.3125 193.179688 294.195312 193.179688 C 297.082031 193.179688 299.441406 190.820312 299.441406 187.933594 L 299.441406 173.1875 L 289.558594 180.707031 C 289.363281 180.855469 289.160156 180.984375 288.953125 181.105469 " fill-opacity="1" fill-rule="nonzero"/><path fill="#353da8" d="M 283.597656 162.640625 C 283.710938 162.652344 283.820312 162.660156 283.929688 162.660156 L 287.230469 160.148438 C 287.273438 159.988281 287.308594 159.824219 287.328125 159.652344 L 287.351562 159.429688 L 288.953125 144.894531 L 288.953125 158.835938 L 308.507812 143.949219 C 306.363281 137.722656 306.382812 131.128906 308.300781 125.113281 L 306.578125 124.949219 C 304.800781 125.929688 302.761719 126.492188 300.597656 126.492188 C 298.429688 126.492188 296.386719 125.929688 294.613281 124.949219 L 288.359375 125.550781 C 286.558594 125.554688 285.058594 126.972656 284.976562 128.785156 L 284.976562 128.789062 L 280.589844 159.136719 C 280.519531 160.894531 281.820312 162.445312 283.597656 162.640625 " fill-opacity="1" fill-rule="nonzero"/><path fill="#353da8" d="M 300.597656 123.523438 C 305.800781 123.523438 310.015625 119.308594 310.015625 114.101562 C 310.015625 108.898438 305.800781 104.679688 300.597656 104.679688 C 295.390625 104.679688 291.175781 108.898438 291.175781 114.101562 C 291.175781 119.308594 295.390625 123.523438 300.597656 123.523438 " fill-opacity="1" fill-rule="nonzero"/><path fill="#353da8" d="M 336.902344 134.433594 C 342.050781 134.433594 346.226562 130.257812 346.226562 125.109375 C 346.226562 119.957031 342.050781 115.78125 336.902344 115.78125 C 331.75 115.78125 327.574219 119.957031 327.574219 125.109375 C 327.574219 130.257812 331.75 134.433594 336.902344 134.433594 " fill-opacity="1" fill-rule="nonzero"/><path fill="#353da8" d="M 335.503906 148.21875 L 336.835938 150.136719 C 336.867188 150.183594 336.9375 150.183594 336.96875 150.136719 L 338.296875 148.21875 C 338.308594 148.203125 338.316406 148.1875 338.3125 148.167969 L 337.613281 139.523438 C 337.609375 139.503906 337.601562 139.484375 337.582031 139.46875 L 336.953125 139.410156 C 336.925781 139.382812 336.878906 139.382812 336.847656 139.410156 L 336.21875 139.46875 C 336.203125 139.484375 336.191406 139.503906 336.191406 139.523438 L 335.488281 148.167969 C 335.488281 148.1875 335.492188 148.203125 335.503906 148.21875 " fill-opacity="1" fill-rule="nonzero"/><path fill="#353da8" d="M 336.917969 156.066406 C 341.675781 156.066406 346.195312 154.539062 349.992188 151.648438 C 351.820312 150.257812 353.367188 148.625 354.617188 146.832031 L 353.632812 140.027344 L 353.632812 140.023438 C 353.546875 138.078125 351.9375 136.558594 350.011719 136.558594 L 344.191406 135.996094 C 343.664062 135.945312 343.199219 136.320312 342.988281 136.804688 L 336.902344 154.746094 L 330.816406 136.804688 C 330.625 136.277344 330.105469 135.949219 329.546875 136.003906 L 323.792969 136.558594 C 321.863281 136.558594 320.253906 138.078125 320.167969 140.023438 L 320.167969 140.027344 L 319.1875 146.828125 C 319.355469 147.070312 319.527344 147.308594 319.707031 147.542969 C 323.828125 152.960938 330.101562 156.066406 336.917969 156.066406 " fill-opacity="1" fill-rule="nonzero"/><path fill="#353da8" d="M 354.660156 157.78125 C 353.109375 158.960938 351.472656 159.96875 349.765625 160.808594 L 351.089844 172.851562 L 351.117188 173.089844 C 351.335938 175.078125 353.125 176.511719 355.113281 176.292969 C 357.015625 176.082031 358.410156 174.421875 358.332031 172.535156 L 356.039062 156.664062 C 355.589844 157.046875 355.132812 157.421875 354.660156 157.78125 " fill-opacity="1" fill-rule="nonzero"/><g clip-path="url(#32f8784af7)"><path fill="#353da8" d="M 336.921875 163.773438 C 332.507812 163.773438 328.265625 162.808594 324.425781 161.007812 L 324.425781 203.390625 C 324.425781 206.480469 326.953125 209.011719 330.046875 209.011719 C 333.136719 209.011719 335.664062 206.480469 335.664062 203.390625 L 335.664062 179.589844 L 338.140625 179.589844 L 338.140625 203.390625 C 338.140625 206.480469 340.667969 209.011719 343.757812 209.011719 C 346.847656 209.011719 349.375 206.480469 349.375 203.390625 L 349.375 160.996094 C 345.507812 162.824219 341.289062 163.773438 336.921875 163.773438 " fill-opacity="1" fill-rule="nonzero"/></g><g clip-path="url(#fd6f4f660f)"><path fill="#353da8" d="M 322.511719 115.335938 C 332.945312 107.394531 347.839844 109.414062 355.78125 119.847656 C 363.722656 130.277344 361.703125 145.175781 351.273438 153.113281 C 340.839844 161.058594 325.945312 159.039062 318.003906 148.605469 C 310.0625 138.175781 312.082031 123.277344 322.511719 115.335938 Z M 353.363281 155.859375 C 365.308594 146.765625 367.621094 129.707031 358.527344 117.757812 C 349.429688 105.8125 332.371094 103.5 320.425781 112.59375 C 310.300781 120.300781 307.097656 133.722656 311.886719 144.910156 L 280.5 168.804688 C 279.378906 169.65625 279.160156 171.265625 280.011719 172.386719 L 284.277344 177.984375 C 285.128906 179.105469 286.738281 179.324219 287.855469 178.472656 L 319.035156 154.734375 C 328.558594 163.042969 342.914062 163.8125 353.363281 155.859375 " fill-opacity="1" fill-rule="nonzero"/></g><path fill="#353da8" d="M 337.257812 138.121094 C 337.539062 138.121094 337.769531 137.894531 337.769531 137.613281 L 337.769531 137.3125 C 337.769531 137.035156 337.539062 136.804688 337.257812 136.804688 L 336.542969 136.804688 C 336.265625 136.804688 336.035156 137.035156 336.035156 137.3125 L 336.035156 137.613281 C 336.035156 137.894531 336.265625 138.121094 336.542969 138.121094 L 337.257812 138.121094 " fill-opacity="1" fill-rule="nonzero"/><path fill="#353da8" d="M 315.46875 172.535156 C 315.390625 174.421875 316.789062 176.082031 318.691406 176.292969 C 320.679688 176.511719 322.46875 175.078125 322.6875 173.089844 L 322.710938 172.851562 L 324.035156 160.824219 C 321.785156 159.726562 319.675781 158.335938 317.761719 156.675781 L 315.46875 172.535156 " fill-opacity="1" fill-rule="nonzero"/><g clip-path="url(#ac47d91be0)"><path fill="#000000" d="M 279.042969 201.207031 L 303.746094 201.207031 L 303.746094 224.375 L 279.042969 224.375 Z M 279.042969 201.207031 " fill-opacity="1" fill-rule="nonzero"/></g><g clip-path="url(#876978c87c)"><path fill="#000000" d="M 324.683594 212.792969 L 346.710938 212.792969 L 346.710938 235.9375 L 324.683594 235.9375 Z M 324.683594 212.792969 " fill-opacity="1" fill-rule="nonzero"/></g><g clip-path="url(#3f0526f704)"><path fill="#000000" d="M 367.710938 201.207031 L 392.414062 201.207031 L 392.414062 224.375 L 367.710938 224.375 Z M 367.710938 201.207031 " fill-opacity="1" fill-rule="nonzero"/></g><g clip-path="url(#dc72143b3f)"><path fill="#242424" d="M 158.03125 55.285156 C 158.058594 54.945312 158.207031 54.640625 158.414062 54.363281 C 159.15625 53.386719 160.824219 52.9375 161.988281 53.660156 C 162.671875 54.085938 163.226562 54.632812 163.683594 55.277344 C 164.058594 55.8125 164.40625 56.375 164.777344 56.941406 C 165.035156 56.574219 165.296875 56.199219 165.5625 55.828125 C 167.859375 52.628906 170.378906 49.628906 173.296875 46.984375 C 175.089844 45.359375 177.144531 44.15625 179.363281 43.203125 C 179.742188 43.039062 180.0625 43.101562 180.394531 43.433594 C 180.242188 43.574219 180.089844 43.710938 179.945312 43.855469 C 178.011719 45.675781 176.121094 47.546875 174.402344 49.578125 C 173.421875 50.742188 172.507812 51.964844 171.570312 53.164062 C 169.683594 55.578125 168.273438 58.300781 166.667969 60.894531 C 166.046875 61.902344 165.4375 62.90625 164.816406 63.910156 C 164.566406 64.304688 164.246094 64.300781 163.996094 63.894531 C 163.195312 62.570312 162.5625 61.167969 161.964844 59.746094 C 161.46875 58.558594 160.90625 57.402344 160.191406 56.320312 C 159.839844 55.789062 159.425781 55.351562 158.742188 55.292969 C 158.511719 55.269531 158.277344 55.285156 158.03125 55.285156 Z M 158.03125 55.285156 " fill-opacity="1" fill-rule="nonzero"/></g><g clip-path="url(#a08a1ee1bf)"><path fill="#242424" d="M 175.386719 51.152344 L 173.507812 53.035156 C 174.050781 54.234375 174.351562 55.566406 174.351562 56.964844 C 174.351562 62.25 170.070312 66.53125 164.792969 66.53125 C 159.515625 66.53125 155.238281 62.25 155.238281 56.964844 C 155.238281 51.683594 159.515625 47.40625 164.792969 47.40625 C 166.117188 47.40625 167.371094 47.675781 168.511719 48.15625 L 170.40625 46.261719 C 168.726562 45.378906 166.820312 44.878906 164.792969 44.878906 C 158.121094 44.878906 152.710938 50.292969 152.710938 56.964844 C 152.710938 63.644531 158.121094 69.054688 164.792969 69.054688 C 171.46875 69.054688 176.871094 63.644531 176.871094 56.964844 C 176.871094 54.859375 176.335938 52.878906 175.386719 51.152344 Z M 175.386719 51.152344 " fill-opacity="1" fill-rule="nonzero"/></g><path fill="#242424" d="M 180.828125 60.4375 C 182.003906 61.976562 184.425781 63.050781 187.179688 63.050781 C 190.652344 63.050781 192.691406 60.839844 192.691406 58.355469 C 192.691406 55.914062 190.210938 54.964844 188.253906 54.273438 C 186.925781 53.785156 185.855469 53.34375 185.855469 52.585938 C 185.855469 51.804688 186.652344 51.113281 187.816406 51.113281 C 189.203125 51.113281 190.925781 51.703125 191.917969 52.898438 L 193.765625 50.820312 C 192.527344 49.363281 190.421875 48.542969 188.191406 48.542969 C 184.71875 48.542969 182.722656 50.792969 182.722656 52.925781 C 182.722656 55.429688 185.160156 56.355469 187.117188 57.046875 C 188.445312 57.535156 189.519531 57.976562 189.519531 58.816406 C 189.519531 59.578125 188.910156 60.4375 187.414062 60.4375 C 185.476562 60.4375 183.644531 59.578125 182.660156 58.269531 Z M 180.828125 60.4375 " fill-opacity="1" fill-rule="nonzero"/><path fill="#242424" d="M 203.65625 62.796875 L 204.203125 60.207031 L 197.28125 60.207031 L 197.996094 56.945312 L 204.792969 56.945312 L 205.359375 54.375 L 198.582031 54.375 L 199.238281 51.320312 L 206.160156 51.320312 L 206.746094 48.753906 L 196.816406 48.753906 L 193.726562 62.796875 Z M 203.65625 62.796875 " fill-opacity="1" fill-rule="nonzero"/><path fill="#242424" d="M 214.910156 62.796875 L 215.476562 60.164062 L 209.566406 60.164062 L 212.070312 48.753906 L 209.082031 48.753906 L 205.992188 62.796875 Z M 214.910156 62.796875 " fill-opacity="1" fill-rule="nonzero"/><path fill="#242424" d="M 226.925781 62.796875 L 227.472656 60.207031 L 220.550781 60.207031 L 221.265625 56.945312 L 228.0625 56.945312 L 228.628906 54.375 L 221.851562 54.375 L 222.507812 51.320312 L 229.429688 51.320312 L 230.015625 48.753906 L 220.085938 48.753906 L 216.996094 62.796875 Z M 226.925781 62.796875 " fill-opacity="1" fill-rule="nonzero"/><path fill="#242424" d="M 229.9375 56.753906 C 229.9375 60.585938 232.964844 63.050781 236.835938 63.050781 C 238.667969 63.050781 241.003906 62.398438 242.601562 60.355469 L 240.308594 58.777344 C 239.511719 59.765625 238.203125 60.398438 237.007812 60.398438 C 234.585938 60.398438 233.046875 58.757812 233.046875 56.5625 C 233.046875 53.492188 235.300781 51.175781 237.953125 51.175781 C 239.570312 51.175781 240.898438 51.996094 241.445312 53.472656 L 244.324219 52.503906 C 243.503906 50.375 241.527344 48.523438 238.101562 48.523438 C 233.71875 48.523438 229.9375 51.785156 229.9375 56.753906 Z M 229.9375 56.753906 " fill-opacity="1" fill-rule="nonzero"/><path fill="#242424" d="M 249.964844 62.796875 L 252.472656 51.386719 L 256.574219 51.386719 L 257.140625 48.753906 L 245.949219 48.753906 L 245.355469 51.386719 L 249.457031 51.386719 L 246.953125 62.796875 Z M 249.964844 62.796875 " fill-opacity="1" fill-rule="nonzero"/><path fill="#2193b0" d="M 255.703125 60.4375 C 256.878906 61.976562 259.300781 63.050781 262.054688 63.050781 C 265.527344 63.050781 267.566406 60.839844 267.566406 58.355469 C 267.566406 55.914062 265.085938 54.964844 263.128906 54.273438 C 261.800781 53.785156 260.730469 53.34375 260.730469 52.585938 C 260.730469 51.804688 261.527344 51.113281 262.6875 51.113281 C 264.074219 51.113281 265.800781 51.703125 266.789062 52.898438 L 268.640625 50.820312 C 267.402344 49.363281 265.296875 48.542969 263.066406 48.542969 C 259.59375 48.542969 257.597656 50.792969 257.597656 52.925781 C 257.597656 55.429688 260.03125 56.355469 261.992188 57.046875 C 263.320312 57.535156 264.394531 57.976562 264.394531 58.816406 C 264.394531 59.578125 263.78125 60.4375 262.289062 60.4375 C 260.351562 60.4375 258.519531 59.578125 257.53125 58.269531 Z M 255.703125 60.4375 " fill-opacity="1" fill-rule="nonzero"/><path fill="#2193b0" d="M 269.273438 56.753906 C 269.273438 60.609375 272.28125 63.050781 276.171875 63.050781 C 280.800781 63.050781 284.316406 59.386719 284.316406 54.796875 C 284.316406 50.964844 281.308594 48.523438 277.4375 48.523438 C 272.808594 48.523438 269.273438 52.167969 269.273438 56.753906 Z M 281.199219 55.003906 C 281.199219 58.019531 279.03125 60.398438 276.34375 60.398438 C 274.089844 60.398438 272.382812 58.945312 272.382812 56.5625 C 272.382812 53.554688 274.53125 51.175781 277.246094 51.175781 C 279.496094 51.175781 281.199219 52.652344 281.199219 55.003906 Z M 281.199219 55.003906 " fill-opacity="1" fill-rule="nonzero"/><path fill="#2193b0" d="M 287.683594 62.796875 L 288.964844 56.945312 L 295.761719 56.945312 L 296.328125 54.375 L 289.550781 54.375 L 290.207031 51.320312 L 297.128906 51.320312 L 297.714844 48.753906 L 287.785156 48.753906 L 284.695312 62.796875 Z M 287.683594 62.796875 " fill-opacity="1" fill-rule="nonzero"/><path fill="#2193b0" d="M 302.957031 62.796875 L 305.460938 51.386719 L 309.5625 51.386719 L 310.128906 48.753906 L 298.9375 48.753906 L 298.347656 51.386719 L 302.449219 51.386719 L 299.945312 62.796875 Z M 302.957031 62.796875 " fill-opacity="1" fill-rule="nonzero"/><path stroke-linecap="butt" transform="matrix(0.75, 0, 0, 0.75, 69.000003, 198.208445)" fill="none" stroke-linejoin="miter" d="M -0.00000448667 1.998115 L 208.000013 1.998115 " stroke="#000000" stroke-width="4" stroke-opacity="1" stroke-miterlimit="4"/><path stroke-linecap="butt" transform="matrix(0.75, 0.000000000000000375, -0.000000000000000375, 0.75, 104.657249, 212.791082)" fill="none" stroke-linejoin="miter" d="M -0.00133234 2.002516 L 113.602844 2.002516 " stroke="#000000" stroke-width="4" stroke-opacity="1" stroke-miterlimit="4"/><g clip-path="url(#d65c7a0a00)"><path fill="#353da8" d="M 20.25 36.023438 L 38.25 36.023438 L 38.25 54.023438 L 20.25 54.023438 Z M 20.25 36.023438 " fill-opacity="1" fill-rule="nonzero"/></g><g clip-path="url(#1d815e327f)"><path fill="#000000" d="M 29.25 47.246094 L 47.25 47.246094 L 47.25 65.246094 L 29.25 65.246094 Z M 29.25 47.246094 " fill-opacity="1" fill-rule="nonzero"/></g><path fill="#ffffff" d="M 17.835938 114.609375 L 33.644531 114.609375 L 33.644531 130.453125 L 17.835938 130.453125 Z M 17.835938 114.609375 " fill-opacity="1" fill-rule="nonzero"/><g clip-path="url(#22f9aaecb3)"><path stroke-linecap="round" transform="matrix(0.132605, 0, 0, 0.132895, -8.282763, 84.031839)" fill="none" stroke-linejoin="round" d="M 196.965757 230.088618 L 316.181171 230.088618 L 316.181171 349.309033 L 196.965757 349.309033 Z M 196.965757 230.088618 " stroke="#000000" stroke-width="20" stroke-opacity="1" stroke-miterlimit="4"/></g><path fill="#ffffff" d="M 17.835938 162 L 33.644531 162 L 33.644531 177.839844 L 17.835938 177.839844 Z M 17.835938 162 " fill-opacity="1" fill-rule="nonzero"/><g clip-path="url(#dd17e2c33f)"><path stroke-linecap="round" transform="matrix(0.132605, 0, 0, 0.132895, -8.282763, 84.031839)" fill="none" stroke-linejoin="round" d="M 196.965757 586.691692 L 316.181171 586.691692 L 316.181171 705.882713 L 196.965757 705.882713 Z M 196.965757 586.691692 " stroke="#000000" stroke-width="20" stroke-opacity="1" stroke-miterlimit="4"/></g><path fill="#ffffff" d="M 17.835938 138.304688 L 33.644531 138.304688 L 33.644531 154.144531 L 17.835938 154.144531 Z M 17.835938 138.304688 " fill-opacity="1" fill-rule="nonzero"/><g clip-path="url(#c2ac4e330b)"><path stroke-linecap="round" transform="matrix(0.132605, 0, 0, 0.132895, -8.282763, 84.031839)" fill="none" stroke-linejoin="round" d="M 196.965757 408.390155 L 316.181171 408.390155 L 316.181171 527.581176 L 196.965757 527.581176 Z M 196.965757 408.390155 " stroke="#000000" stroke-width="20" stroke-opacity="1" stroke-miterlimit="4"/></g><g clip-path="url(#35a8c5b781)"><path stroke-linecap="butt" transform="matrix(0.132605, 0, 0, 0.132895, -8.282763, 84.031839)" fill="none" stroke-linejoin="miter" d="M 222.741267 263.06823 L 266.279784 320.503311 L 361.133659 155.869795 " stroke="#000000" stroke-width="34.862999" stroke-opacity="1" stroke-miterlimit="0"/></g><g clip-path="url(#2f7218a8ef)"><path stroke-linecap="butt" transform="matrix(0.132605, 0, 0, 0.132895, -8.282763, 84.031839)" fill="none" stroke-linejoin="miter" d="M 225.775412 438.841918 L 269.31393 496.276999 L 364.167805 331.61409 " stroke="#000000" stroke-width="34.862999" stroke-opacity="1" stroke-miterlimit="0"/></g><path stroke-linecap="butt" transform="matrix(0.75, 0.000000000000000375, -0.000000000000000375, 0.75, 69.516618, 228.123733)" fill="none" stroke-linejoin="miter" d="M -0.00132363 2.00169 L 113.602852 2.00169 " stroke="#000000" stroke-width="4" stroke-opacity="1" stroke-miterlimit="4"/><g fill="#2d0d6b" fill-opacity="1"><g transform="translate(69.516618, 116.110546)"><g><path d="M 2.390625 -11.5 L 2.390625 -2.625 C 2.390625 -2.207031 2.472656 -1.914062 2.640625 -1.75 C 2.804688 -1.59375 3.035156 -1.515625 3.328125 -1.515625 C 3.609375 -1.515625 3.832031 -1.59375 4 -1.75 C 4.164062 -1.914062 4.25 -2.207031 4.25 -2.625 L 4.25 -11.5 L 5.96875 -11.5 L 5.96875 -2.75 C 5.96875 -1.8125 5.738281 -1.09375 5.28125 -0.59375 C 4.832031 -0.101562 4.160156 0.140625 3.265625 0.140625 C 2.378906 0.140625 1.707031 -0.101562 1.25 -0.59375 C 0.800781 -1.09375 0.578125 -1.8125 0.578125 -2.75 L 0.578125 -11.5 Z M 2.390625 -11.5 "/></g></g></g><g fill="#2d0d6b" fill-opacity="1"><g transform="translate(76.0556, 116.110546)"><g><path d="M 2.265625 -8.328125 L 2.265625 0 L 0.640625 0 L 0.640625 -11.5 L 2.90625 -11.5 L 4.765625 -4.625 L 4.765625 -11.5 L 6.375 -11.5 L 6.375 0 L 4.515625 0 Z M 2.265625 -8.328125 "/></g></g></g><g fill="#2d0d6b" fill-opacity="1"><g transform="translate(83.071045, 116.110546)"><g><path d="M 6.515625 0 L 4.6875 0 L 4.375 -2.09375 L 2.15625 -2.09375 L 1.84375 0 L 0.1875 0 L 2.015625 -11.5 L 4.671875 -11.5 Z M 2.390625 -3.65625 L 4.125 -3.65625 L 3.25 -9.46875 Z M 2.390625 -3.65625 "/></g></g></g><g fill="#2d0d6b" fill-opacity="1"><g transform="translate(89.757896, 116.110546)"><g/></g></g><g fill="#2d0d6b" fill-opacity="1"><g transform="translate(92.304481, 116.110546)"><g><path d="M 2.46875 0 L 0.65625 0 L 0.65625 -11.5 L 2.46875 -11.5 L 2.46875 -6.578125 L 4.515625 -6.578125 L 4.515625 -11.5 L 6.359375 -11.5 L 6.359375 0 L 4.515625 0 L 4.515625 -4.9375 L 2.46875 -4.9375 Z M 2.46875 0 "/></g></g></g><g fill="#2d0d6b" fill-opacity="1"><g transform="translate(99.319926, 116.110546)"><g><path d="M 2.46875 -6.65625 L 4.953125 -6.65625 L 4.953125 -5.015625 L 2.46875 -5.015625 L 2.46875 -1.640625 L 5.59375 -1.640625 L 5.59375 0 L 0.65625 0 L 0.65625 -11.5 L 5.59375 -11.5 L 5.59375 -9.859375 L 2.46875 -9.859375 Z M 2.46875 -6.65625 "/></g></g></g><g fill="#2d0d6b" fill-opacity="1"><g transform="translate(105.366022, 116.110546)"><g><path d="M 4.4375 0 C 4.414062 -0.0703125 4.394531 -0.140625 4.375 -0.203125 C 4.351562 -0.273438 4.332031 -0.359375 4.3125 -0.453125 C 4.300781 -0.554688 4.289062 -0.679688 4.28125 -0.828125 C 4.28125 -0.984375 4.28125 -1.175781 4.28125 -1.40625 L 4.28125 -3.21875 C 4.28125 -3.757812 4.1875 -4.140625 4 -4.359375 C 3.8125 -4.578125 3.507812 -4.6875 3.09375 -4.6875 L 2.46875 -4.6875 L 2.46875 0 L 0.65625 0 L 0.65625 -11.5 L 3.390625 -11.5 C 4.328125 -11.5 5.003906 -11.28125 5.421875 -10.84375 C 5.847656 -10.40625 6.0625 -9.742188 6.0625 -8.859375 L 6.0625 -7.953125 C 6.0625 -6.773438 5.664062 -6 4.875 -5.625 C 5.34375 -5.4375 5.660156 -5.128906 5.828125 -4.703125 C 5.992188 -4.285156 6.078125 -3.773438 6.078125 -3.171875 L 6.078125 -1.390625 C 6.078125 -1.109375 6.085938 -0.859375 6.109375 -0.640625 C 6.128906 -0.429688 6.1875 -0.21875 6.28125 0 Z M 2.46875 -9.859375 L 2.46875 -6.328125 L 3.171875 -6.328125 C 3.515625 -6.328125 3.78125 -6.414062 3.96875 -6.59375 C 4.15625 -6.769531 4.25 -7.085938 4.25 -7.546875 L 4.25 -8.671875 C 4.25 -9.085938 4.175781 -9.390625 4.03125 -9.578125 C 3.882812 -9.765625 3.65625 -9.859375 3.34375 -9.859375 Z M 2.46875 -9.859375 "/></g></g></g><g fill="#2d0d6b" fill-opacity="1"><g transform="translate(111.970727, 116.110546)"><g><path d="M 4.4375 0 C 4.414062 -0.0703125 4.394531 -0.140625 4.375 -0.203125 C 4.351562 -0.273438 4.332031 -0.359375 4.3125 -0.453125 C 4.300781 -0.554688 4.289062 -0.679688 4.28125 -0.828125 C 4.28125 -0.984375 4.28125 -1.175781 4.28125 -1.40625 L 4.28125 -3.21875 C 4.28125 -3.757812 4.1875 -4.140625 4 -4.359375 C 3.8125 -4.578125 3.507812 -4.6875 3.09375 -4.6875 L 2.46875 -4.6875 L 2.46875 0 L 0.65625 0 L 0.65625 -11.5 L 3.390625 -11.5 C 4.328125 -11.5 5.003906 -11.28125 5.421875 -10.84375 C 5.847656 -10.40625 6.0625 -9.742188 6.0625 -8.859375 L 6.0625 -7.953125 C 6.0625 -6.773438 5.664062 -6 4.875 -5.625 C 5.34375 -5.4375 5.660156 -5.128906 5.828125 -4.703125 C 5.992188 -4.285156 6.078125 -3.773438 6.078125 -3.171875 L 6.078125 -1.390625 C 6.078125 -1.109375 6.085938 -0.859375 6.109375 -0.640625 C 6.128906 -0.429688 6.1875 -0.21875 6.28125 0 Z M 2.46875 -9.859375 L 2.46875 -6.328125 L 3.171875 -6.328125 C 3.515625 -6.328125 3.78125 -6.414062 3.96875 -6.59375 C 4.15625 -6.769531 4.25 -7.085938 4.25 -7.546875 L 4.25 -8.671875 C 4.25 -9.085938 4.175781 -9.390625 4.03125 -9.578125 C 3.882812 -9.765625 3.65625 -9.859375 3.34375 -9.859375 Z M 2.46875 -9.859375 "/></g></g></g><g fill="#2d0d6b" fill-opacity="1"><g transform="translate(118.575433, 116.110546)"><g><path d="M 6.515625 0 L 4.6875 0 L 4.375 -2.09375 L 2.15625 -2.09375 L 1.84375 0 L 0.1875 0 L 2.015625 -11.5 L 4.671875 -11.5 Z M 2.390625 -3.65625 L 4.125 -3.65625 L 3.25 -9.46875 Z M 2.390625 -3.65625 "/></g></g></g><g fill="#2d0d6b" fill-opacity="1"><g transform="translate(125.262283, 116.110546)"><g><path d="M 4.484375 -3.34375 L 5.71875 -11.5 L 8.234375 -11.5 L 8.234375 0 L 6.53125 0 L 6.53125 -8.25 L 5.28125 0 L 3.5625 0 L 2.21875 -8.140625 L 2.21875 0 L 0.640625 0 L 0.640625 -11.5 L 3.15625 -11.5 Z M 4.484375 -3.34375 "/></g></g></g><g fill="#2d0d6b" fill-opacity="1"><g transform="translate(134.150703, 116.110546)"><g><path d="M 0.65625 -11.5 L 2.46875 -11.5 L 2.46875 0 L 0.65625 0 Z M 0.65625 -11.5 "/></g></g></g><g fill="#2d0d6b" fill-opacity="1"><g transform="translate(137.27233, 116.110546)"><g><path d="M 2.46875 -6.65625 L 4.953125 -6.65625 L 4.953125 -5.015625 L 2.46875 -5.015625 L 2.46875 -1.640625 L 5.59375 -1.640625 L 5.59375 0 L 0.65625 0 L 0.65625 -11.5 L 5.59375 -11.5 L 5.59375 -9.859375 L 2.46875 -9.859375 Z M 2.46875 -6.65625 "/></g></g></g><g fill="#2d0d6b" fill-opacity="1"><g transform="translate(143.318427, 116.110546)"><g><path d="M 2.265625 -8.328125 L 2.265625 0 L 0.640625 0 L 0.640625 -11.5 L 2.90625 -11.5 L 4.765625 -4.625 L 4.765625 -11.5 L 6.375 -11.5 L 6.375 0 L 4.515625 0 Z M 2.265625 -8.328125 "/></g></g></g><g fill="#2d0d6b" fill-opacity="1"><g transform="translate(150.333872, 116.110546)"><g><path d="M 0.125 -11.5 L 5.71875 -11.5 L 5.71875 -9.859375 L 3.828125 -9.859375 L 3.828125 0 L 2.015625 0 L 2.015625 -9.859375 L 0.125 -9.859375 Z M 0.125 -11.5 "/></g></g></g><g fill="#2d0d6b" fill-opacity="1"><g transform="translate(156.182809, 116.110546)"><g><path d="M 6.515625 0 L 4.6875 0 L 4.375 -2.09375 L 2.15625 -2.09375 L 1.84375 0 L 0.1875 0 L 2.015625 -11.5 L 4.671875 -11.5 Z M 2.390625 -3.65625 L 4.125 -3.65625 L 3.25 -9.46875 Z M 2.390625 -3.65625 "/></g></g></g><g fill="#2d0d6b" fill-opacity="1"><g transform="translate(162.86966, 116.110546)"><g/></g></g><g fill="#2d0d6b" fill-opacity="1"><g transform="translate(165.416245, 116.110546)"><g><path d="M 3.328125 -11.5 C 4.234375 -11.5 4.90625 -11.257812 5.34375 -10.78125 C 5.789062 -10.300781 6.015625 -9.59375 6.015625 -8.65625 L 6.015625 -7.171875 C 6.015625 -6.234375 5.789062 -5.523438 5.34375 -5.046875 C 4.90625 -4.566406 4.234375 -4.328125 3.328125 -4.328125 L 2.46875 -4.328125 L 2.46875 0 L 0.65625 0 L 0.65625 -11.5 Z M 2.46875 -9.859375 L 2.46875 -5.96875 L 3.328125 -5.96875 C 3.609375 -5.96875 3.820312 -6.039062 3.96875 -6.1875 C 4.125 -6.34375 4.203125 -6.628906 4.203125 -7.046875 L 4.203125 -8.78125 C 4.203125 -9.195312 4.125 -9.476562 3.96875 -9.625 C 3.820312 -9.78125 3.609375 -9.859375 3.328125 -9.859375 Z M 2.46875 -9.859375 "/></g></g></g><g fill="#2d0d6b" fill-opacity="1"><g transform="translate(171.610211, 116.110546)"><g><path d="M 6.515625 0 L 4.6875 0 L 4.375 -2.09375 L 2.15625 -2.09375 L 1.84375 0 L 0.1875 0 L 2.015625 -11.5 L 4.671875 -11.5 Z M 2.390625 -3.65625 L 4.125 -3.65625 L 3.25 -9.46875 Z M 2.390625 -3.65625 "/></g></g></g><g fill="#2d0d6b" fill-opacity="1"><g transform="translate(178.297062, 116.110546)"><g><path d="M 4.4375 0 C 4.414062 -0.0703125 4.394531 -0.140625 4.375 -0.203125 C 4.351562 -0.273438 4.332031 -0.359375 4.3125 -0.453125 C 4.300781 -0.554688 4.289062 -0.679688 4.28125 -0.828125 C 4.28125 -0.984375 4.28125 -1.175781 4.28125 -1.40625 L 4.28125 -3.21875 C 4.28125 -3.757812 4.1875 -4.140625 4 -4.359375 C 3.8125 -4.578125 3.507812 -4.6875 3.09375 -4.6875 L 2.46875 -4.6875 L 2.46875 0 L 0.65625 0 L 0.65625 -11.5 L 3.390625 -11.5 C 4.328125 -11.5 5.003906 -11.28125 5.421875 -10.84375 C 5.847656 -10.40625 6.0625 -9.742188 6.0625 -8.859375 L 6.0625 -7.953125 C 6.0625 -6.773438 5.664062 -6 4.875 -5.625 C 5.34375 -5.4375 5.660156 -5.128906 5.828125 -4.703125 C 5.992188 -4.285156 6.078125 -3.773438 6.078125 -3.171875 L 6.078125 -1.390625 C 6.078125 -1.109375 6.085938 -0.859375 6.109375 -0.640625 C 6.128906 -0.429688 6.1875 -0.21875 6.28125 0 Z M 2.46875 -9.859375 L 2.46875 -6.328125 L 3.171875 -6.328125 C 3.515625 -6.328125 3.78125 -6.414062 3.96875 -6.59375 C 4.15625 -6.769531 4.25 -7.085938 4.25 -7.546875 L 4.25 -8.671875 C 4.25 -9.085938 4.175781 -9.390625 4.03125 -9.578125 C 3.882812 -9.765625 3.65625 -9.859375 3.34375 -9.859375 Z M 2.46875 -9.859375 "/></g></g></g><g fill="#2d0d6b" fill-opacity="1"><g transform="translate(184.901767, 116.110546)"><g><path d="M 6.515625 0 L 4.6875 0 L 4.375 -2.09375 L 2.15625 -2.09375 L 1.84375 0 L 0.1875 0 L 2.015625 -11.5 L 4.671875 -11.5 Z M 2.390625 -3.65625 L 4.125 -3.65625 L 3.25 -9.46875 Z M 2.390625 -3.65625 "/></g></g></g><g fill="#2d0d6b" fill-opacity="1"><g transform="translate(191.588618, 116.110546)"><g/></g></g><g fill="#2d0d6b" fill-opacity="1"><g transform="translate(194.135203, 116.110546)"><g><path d="M 0.65625 -11.5 L 2.46875 -11.5 L 2.46875 -1.640625 L 5.4375 -1.640625 L 5.4375 0 L 0.65625 0 Z M 0.65625 -11.5 "/></g></g></g><g fill="#2d0d6b" fill-opacity="1"><g transform="translate(199.704836, 116.110546)"><g><path d="M 6.515625 0 L 4.6875 0 L 4.375 -2.09375 L 2.15625 -2.09375 L 1.84375 0 L 0.1875 0 L 2.015625 -11.5 L 4.671875 -11.5 Z M 2.390625 -3.65625 L 4.125 -3.65625 L 3.25 -9.46875 Z M 2.390625 -3.65625 "/></g></g></g><g fill="#2d0d6b" fill-opacity="1"><g transform="translate(69.516618, 138.610544)"><g><path d="M 0.421875 -8.75 C 0.421875 -9.675781 0.644531 -10.390625 1.09375 -10.890625 C 1.539062 -11.390625 2.207031 -11.640625 3.09375 -11.640625 C 3.976562 -11.640625 4.640625 -11.390625 5.078125 -10.890625 C 5.523438 -10.390625 5.75 -9.675781 5.75 -8.75 L 5.75 -8.390625 L 4.046875 -8.390625 L 4.046875 -8.859375 C 4.046875 -9.273438 3.960938 -9.566406 3.796875 -9.734375 C 3.640625 -9.910156 3.421875 -10 3.140625 -10 C 2.859375 -10 2.632812 -9.910156 2.46875 -9.734375 C 2.3125 -9.566406 2.234375 -9.273438 2.234375 -8.859375 C 2.234375 -8.460938 2.320312 -8.113281 2.5 -7.8125 C 2.675781 -7.507812 2.894531 -7.222656 3.15625 -6.953125 C 3.414062 -6.691406 3.695312 -6.425781 4 -6.15625 C 4.300781 -5.882812 4.582031 -5.585938 4.84375 -5.265625 C 5.113281 -4.953125 5.332031 -4.59375 5.5 -4.1875 C 5.675781 -3.78125 5.765625 -3.304688 5.765625 -2.765625 C 5.765625 -1.828125 5.535156 -1.109375 5.078125 -0.609375 C 4.628906 -0.117188 3.960938 0.125 3.078125 0.125 C 2.191406 0.125 1.519531 -0.117188 1.0625 -0.609375 C 0.601562 -1.109375 0.375 -1.828125 0.375 -2.765625 L 0.375 -3.46875 L 2.09375 -3.46875 L 2.09375 -2.640625 C 2.09375 -2.222656 2.175781 -1.929688 2.34375 -1.765625 C 2.507812 -1.609375 2.738281 -1.53125 3.03125 -1.53125 C 3.3125 -1.53125 3.535156 -1.609375 3.703125 -1.765625 C 3.878906 -1.929688 3.96875 -2.222656 3.96875 -2.640625 C 3.96875 -3.035156 3.878906 -3.382812 3.703125 -3.6875 C 3.523438 -3.988281 3.300781 -4.273438 3.03125 -4.546875 C 2.769531 -4.816406 2.488281 -5.082031 2.1875 -5.34375 C 1.894531 -5.613281 1.613281 -5.90625 1.34375 -6.21875 C 1.082031 -6.539062 0.863281 -6.90625 0.6875 -7.3125 C 0.507812 -7.71875 0.421875 -8.195312 0.421875 -8.75 Z M 0.421875 -8.75 "/></g></g></g><g fill="#2d0d6b" fill-opacity="1"><g transform="translate(75.661293, 138.610544)"><g><path d="M 2.46875 -6.65625 L 4.953125 -6.65625 L 4.953125 -5.015625 L 2.46875 -5.015625 L 2.46875 -1.640625 L 5.59375 -1.640625 L 5.59375 0 L 0.65625 0 L 0.65625 -11.5 L 5.59375 -11.5 L 5.59375 -9.859375 L 2.46875 -9.859375 Z M 2.46875 -6.65625 "/></g></g></g><g fill="#2d0d6b" fill-opacity="1"><g transform="translate(81.70739, 138.610544)"><g><path d="M 0.65625 -11.5 L 2.46875 -11.5 L 2.46875 -1.640625 L 5.4375 -1.640625 L 5.4375 0 L 0.65625 0 Z M 0.65625 -11.5 "/></g></g></g><g fill="#2d0d6b" fill-opacity="1"><g transform="translate(87.277023, 138.610544)"><g><path d="M 2.46875 -6.65625 L 4.953125 -6.65625 L 4.953125 -5.015625 L 2.46875 -5.015625 L 2.46875 -1.640625 L 5.59375 -1.640625 L 5.59375 0 L 0.65625 0 L 0.65625 -11.5 L 5.59375 -11.5 L 5.59375 -9.859375 L 2.46875 -9.859375 Z M 2.46875 -6.65625 "/></g></g></g><g fill="#2d0d6b" fill-opacity="1"><g transform="translate(93.323119, 138.610544)"><g><path d="M 5.90625 -4.296875 L 5.90625 -2.765625 C 5.90625 -1.828125 5.675781 -1.109375 5.21875 -0.609375 C 4.757812 -0.117188 4.085938 0.125 3.203125 0.125 C 2.316406 0.125 1.644531 -0.117188 1.1875 -0.609375 C 0.738281 -1.109375 0.515625 -1.828125 0.515625 -2.765625 L 0.515625 -8.75 C 0.515625 -9.675781 0.738281 -10.390625 1.1875 -10.890625 C 1.644531 -11.390625 2.316406 -11.640625 3.203125 -11.640625 C 4.085938 -11.640625 4.757812 -11.390625 5.21875 -10.890625 C 5.675781 -10.390625 5.90625 -9.675781 5.90625 -8.75 L 5.90625 -7.625 L 4.1875 -7.625 L 4.1875 -8.859375 C 4.1875 -9.273438 4.101562 -9.566406 3.9375 -9.734375 C 3.769531 -9.910156 3.539062 -10 3.25 -10 C 2.96875 -10 2.738281 -9.910156 2.5625 -9.734375 C 2.394531 -9.566406 2.3125 -9.273438 2.3125 -8.859375 L 2.3125 -2.640625 C 2.3125 -2.222656 2.394531 -1.929688 2.5625 -1.765625 C 2.738281 -1.609375 2.96875 -1.53125 3.25 -1.53125 C 3.539062 -1.53125 3.769531 -1.609375 3.9375 -1.765625 C 4.101562 -1.929688 4.1875 -2.222656 4.1875 -2.640625 L 4.1875 -4.296875 Z M 5.90625 -4.296875 "/></g></g></g><g fill="#2d0d6b" fill-opacity="1"><g transform="translate(99.664942, 138.610544)"><g><path d="M 5.90625 -4.296875 L 5.90625 -2.765625 C 5.90625 -1.828125 5.675781 -1.109375 5.21875 -0.609375 C 4.757812 -0.117188 4.085938 0.125 3.203125 0.125 C 2.316406 0.125 1.644531 -0.117188 1.1875 -0.609375 C 0.738281 -1.109375 0.515625 -1.828125 0.515625 -2.765625 L 0.515625 -8.75 C 0.515625 -9.675781 0.738281 -10.390625 1.1875 -10.890625 C 1.644531 -11.390625 2.316406 -11.640625 3.203125 -11.640625 C 4.085938 -11.640625 4.757812 -11.390625 5.21875 -10.890625 C 5.675781 -10.390625 5.90625 -9.675781 5.90625 -8.75 L 5.90625 -7.625 L 4.1875 -7.625 L 4.1875 -8.859375 C 4.1875 -9.273438 4.101562 -9.566406 3.9375 -9.734375 C 3.769531 -9.910156 3.539062 -10 3.25 -10 C 2.96875 -10 2.738281 -9.910156 2.5625 -9.734375 C 2.394531 -9.566406 2.3125 -9.273438 2.3125 -8.859375 L 2.3125 -2.640625 C 2.3125 -2.222656 2.394531 -1.929688 2.5625 -1.765625 C 2.738281 -1.609375 2.96875 -1.53125 3.25 -1.53125 C 3.539062 -1.53125 3.769531 -1.609375 3.9375 -1.765625 C 4.101562 -1.929688 4.1875 -2.222656 4.1875 -2.640625 L 4.1875 -4.296875 Z M 5.90625 -4.296875 "/></g></g></g><g fill="#2d0d6b" fill-opacity="1"><g transform="translate(106.006765, 138.610544)"><g><path d="M 0.65625 -11.5 L 2.46875 -11.5 L 2.46875 0 L 0.65625 0 Z M 0.65625 -11.5 "/></g></g></g><g fill="#2d0d6b" fill-opacity="1"><g transform="translate(109.128393, 138.610544)"><g><path d="M 2.3125 -2.640625 C 2.3125 -2.222656 2.394531 -1.929688 2.5625 -1.765625 C 2.738281 -1.597656 2.96875 -1.515625 3.25 -1.515625 C 3.539062 -1.515625 3.769531 -1.597656 3.9375 -1.765625 C 4.101562 -1.929688 4.1875 -2.222656 4.1875 -2.640625 L 4.1875 -8.859375 C 4.1875 -9.273438 4.101562 -9.566406 3.9375 -9.734375 C 3.769531 -9.910156 3.539062 -10 3.25 -10 C 2.96875 -10 2.738281 -9.910156 2.5625 -9.734375 C 2.394531 -9.566406 2.3125 -9.273438 2.3125 -8.859375 Z M 0.515625 -8.75 C 0.515625 -9.675781 0.75 -10.390625 1.21875 -10.890625 C 1.6875 -11.390625 2.363281 -11.640625 3.25 -11.640625 C 4.144531 -11.640625 4.828125 -11.390625 5.296875 -10.890625 C 5.765625 -10.390625 6 -9.675781 6 -8.75 L 6 -2.765625 C 6 -1.828125 5.765625 -1.109375 5.296875 -0.609375 C 4.828125 -0.117188 4.144531 0.125 3.25 0.125 C 2.363281 0.125 1.6875 -0.117188 1.21875 -0.609375 C 0.75 -1.109375 0.515625 -1.828125 0.515625 -2.765625 Z M 0.515625 -8.75 "/></g></g></g><g fill="#2d0d6b" fill-opacity="1"><g transform="translate(115.634519, 138.610544)"><g><path d="M 2.265625 -8.328125 L 2.265625 0 L 0.640625 0 L 0.640625 -11.5 L 2.90625 -11.5 L 4.765625 -4.625 L 4.765625 -11.5 L 6.375 -11.5 L 6.375 0 L 4.515625 0 Z M 2.265625 -8.328125 "/></g></g></g><g fill="#2d0d6b" fill-opacity="1"><g transform="translate(122.649964, 138.610544)"><g/></g></g><g fill="#2d0d6b" fill-opacity="1"><g transform="translate(125.196549, 138.610544)"><g><path d="M 0.65625 -11.5 L 3.515625 -11.5 C 4.421875 -11.5 5.097656 -11.257812 5.546875 -10.78125 C 5.992188 -10.300781 6.21875 -9.59375 6.21875 -8.65625 L 6.21875 -2.84375 C 6.21875 -1.914062 5.992188 -1.207031 5.546875 -0.71875 C 5.097656 -0.238281 4.421875 0 3.515625 0 L 0.65625 0 Z M 2.46875 -9.859375 L 2.46875 -1.640625 L 3.484375 -1.640625 C 3.765625 -1.640625 3.988281 -1.722656 4.15625 -1.890625 C 4.320312 -2.054688 4.40625 -2.347656 4.40625 -2.765625 L 4.40625 -8.75 C 4.40625 -9.164062 4.320312 -9.453125 4.15625 -9.609375 C 3.988281 -9.773438 3.765625 -9.859375 3.484375 -9.859375 Z M 2.46875 -9.859375 "/></g></g></g><g fill="#2d0d6b" fill-opacity="1"><g transform="translate(131.899822, 138.610544)"><g><path d="M 2.46875 -6.65625 L 4.953125 -6.65625 L 4.953125 -5.015625 L 2.46875 -5.015625 L 2.46875 -1.640625 L 5.59375 -1.640625 L 5.59375 0 L 0.65625 0 L 0.65625 -11.5 L 5.59375 -11.5 L 5.59375 -9.859375 L 2.46875 -9.859375 Z M 2.46875 -6.65625 "/></g></g></g><g fill="#2d0d6b" fill-opacity="1"><g transform="translate(137.945918, 138.610544)"><g/></g></g><g fill="#2d0d6b" fill-opacity="1"><g transform="translate(140.492503, 138.610544)"><g><path d="M 3.328125 -11.5 C 4.234375 -11.5 4.90625 -11.257812 5.34375 -10.78125 C 5.789062 -10.300781 6.015625 -9.59375 6.015625 -8.65625 L 6.015625 -7.171875 C 6.015625 -6.234375 5.789062 -5.523438 5.34375 -5.046875 C 4.90625 -4.566406 4.234375 -4.328125 3.328125 -4.328125 L 2.46875 -4.328125 L 2.46875 0 L 0.65625 0 L 0.65625 -11.5 Z M 2.46875 -9.859375 L 2.46875 -5.96875 L 3.328125 -5.96875 C 3.609375 -5.96875 3.820312 -6.039062 3.96875 -6.1875 C 4.125 -6.34375 4.203125 -6.628906 4.203125 -7.046875 L 4.203125 -8.78125 C 4.203125 -9.195312 4.125 -9.476562 3.96875 -9.625 C 3.820312 -9.78125 3.609375 -9.859375 3.328125 -9.859375 Z M 2.46875 -9.859375 "/></g></g></g><g fill="#2d0d6b" fill-opacity="1"><g transform="translate(146.686469, 138.610544)"><g><path d="M 2.46875 -6.65625 L 4.953125 -6.65625 L 4.953125 -5.015625 L 2.46875 -5.015625 L 2.46875 -1.640625 L 5.59375 -1.640625 L 5.59375 0 L 0.65625 0 L 0.65625 -11.5 L 5.59375 -11.5 L 5.59375 -9.859375 L 2.46875 -9.859375 Z M 2.46875 -6.65625 "/></g></g></g><g fill="#2d0d6b" fill-opacity="1"><g transform="translate(152.732565, 138.610544)"><g><path d="M 4.4375 0 C 4.414062 -0.0703125 4.394531 -0.140625 4.375 -0.203125 C 4.351562 -0.273438 4.332031 -0.359375 4.3125 -0.453125 C 4.300781 -0.554688 4.289062 -0.679688 4.28125 -0.828125 C 4.28125 -0.984375 4.28125 -1.175781 4.28125 -1.40625 L 4.28125 -3.21875 C 4.28125 -3.757812 4.1875 -4.140625 4 -4.359375 C 3.8125 -4.578125 3.507812 -4.6875 3.09375 -4.6875 L 2.46875 -4.6875 L 2.46875 0 L 0.65625 0 L 0.65625 -11.5 L 3.390625 -11.5 C 4.328125 -11.5 5.003906 -11.28125 5.421875 -10.84375 C 5.847656 -10.40625 6.0625 -9.742188 6.0625 -8.859375 L 6.0625 -7.953125 C 6.0625 -6.773438 5.664062 -6 4.875 -5.625 C 5.34375 -5.4375 5.660156 -5.128906 5.828125 -4.703125 C 5.992188 -4.285156 6.078125 -3.773438 6.078125 -3.171875 L 6.078125 -1.390625 C 6.078125 -1.109375 6.085938 -0.859375 6.109375 -0.640625 C 6.128906 -0.429688 6.1875 -0.21875 6.28125 0 Z M 2.46875 -9.859375 L 2.46875 -6.328125 L 3.171875 -6.328125 C 3.515625 -6.328125 3.78125 -6.414062 3.96875 -6.59375 C 4.15625 -6.769531 4.25 -7.085938 4.25 -7.546875 L 4.25 -8.671875 C 4.25 -9.085938 4.175781 -9.390625 4.03125 -9.578125 C 3.882812 -9.765625 3.65625 -9.859375 3.34375 -9.859375 Z M 2.46875 -9.859375 "/></g></g></g><g fill="#2d0d6b" fill-opacity="1"><g transform="translate(159.33727, 138.610544)"><g><path d="M 0.421875 -8.75 C 0.421875 -9.675781 0.644531 -10.390625 1.09375 -10.890625 C 1.539062 -11.390625 2.207031 -11.640625 3.09375 -11.640625 C 3.976562 -11.640625 4.640625 -11.390625 5.078125 -10.890625 C 5.523438 -10.390625 5.75 -9.675781 5.75 -8.75 L 5.75 -8.390625 L 4.046875 -8.390625 L 4.046875 -8.859375 C 4.046875 -9.273438 3.960938 -9.566406 3.796875 -9.734375 C 3.640625 -9.910156 3.421875 -10 3.140625 -10 C 2.859375 -10 2.632812 -9.910156 2.46875 -9.734375 C 2.3125 -9.566406 2.234375 -9.273438 2.234375 -8.859375 C 2.234375 -8.460938 2.320312 -8.113281 2.5 -7.8125 C 2.675781 -7.507812 2.894531 -7.222656 3.15625 -6.953125 C 3.414062 -6.691406 3.695312 -6.425781 4 -6.15625 C 4.300781 -5.882812 4.582031 -5.585938 4.84375 -5.265625 C 5.113281 -4.953125 5.332031 -4.59375 5.5 -4.1875 C 5.675781 -3.78125 5.765625 -3.304688 5.765625 -2.765625 C 5.765625 -1.828125 5.535156 -1.109375 5.078125 -0.609375 C 4.628906 -0.117188 3.960938 0.125 3.078125 0.125 C 2.191406 0.125 1.519531 -0.117188 1.0625 -0.609375 C 0.601562 -1.109375 0.375 -1.828125 0.375 -2.765625 L 0.375 -3.46875 L 2.09375 -3.46875 L 2.09375 -2.640625 C 2.09375 -2.222656 2.175781 -1.929688 2.34375 -1.765625 C 2.507812 -1.609375 2.738281 -1.53125 3.03125 -1.53125 C 3.3125 -1.53125 3.535156 -1.609375 3.703125 -1.765625 C 3.878906 -1.929688 3.96875 -2.222656 3.96875 -2.640625 C 3.96875 -3.035156 3.878906 -3.382812 3.703125 -3.6875 C 3.523438 -3.988281 3.300781 -4.273438 3.03125 -4.546875 C 2.769531 -4.816406 2.488281 -5.082031 2.1875 -5.34375 C 1.894531 -5.613281 1.613281 -5.90625 1.34375 -6.21875 C 1.082031 -6.539062 0.863281 -6.90625 0.6875 -7.3125 C 0.507812 -7.71875 0.421875 -8.195312 0.421875 -8.75 Z M 0.421875 -8.75 "/></g></g></g><g fill="#2d0d6b" fill-opacity="1"><g transform="translate(165.481946, 138.610544)"><g><path d="M 2.3125 -2.640625 C 2.3125 -2.222656 2.394531 -1.929688 2.5625 -1.765625 C 2.738281 -1.597656 2.96875 -1.515625 3.25 -1.515625 C 3.539062 -1.515625 3.769531 -1.597656 3.9375 -1.765625 C 4.101562 -1.929688 4.1875 -2.222656 4.1875 -2.640625 L 4.1875 -8.859375 C 4.1875 -9.273438 4.101562 -9.566406 3.9375 -9.734375 C 3.769531 -9.910156 3.539062 -10 3.25 -10 C 2.96875 -10 2.738281 -9.910156 2.5625 -9.734375 C 2.394531 -9.566406 2.3125 -9.273438 2.3125 -8.859375 Z M 0.515625 -8.75 C 0.515625 -9.675781 0.75 -10.390625 1.21875 -10.890625 C 1.6875 -11.390625 2.363281 -11.640625 3.25 -11.640625 C 4.144531 -11.640625 4.828125 -11.390625 5.296875 -10.890625 C 5.765625 -10.390625 6 -9.675781 6 -8.75 L 6 -2.765625 C 6 -1.828125 5.765625 -1.109375 5.296875 -0.609375 C 4.828125 -0.117188 4.144531 0.125 3.25 0.125 C 2.363281 0.125 1.6875 -0.117188 1.21875 -0.609375 C 0.75 -1.109375 0.515625 -1.828125 0.515625 -2.765625 Z M 0.515625 -8.75 "/></g></g></g><g fill="#2d0d6b" fill-opacity="1"><g transform="translate(171.988072, 138.610544)"><g><path d="M 2.265625 -8.328125 L 2.265625 0 L 0.640625 0 L 0.640625 -11.5 L 2.90625 -11.5 L 4.765625 -4.625 L 4.765625 -11.5 L 6.375 -11.5 L 6.375 0 L 4.515625 0 Z M 2.265625 -8.328125 "/></g></g></g><g fill="#2d0d6b" fill-opacity="1"><g transform="translate(179.003517, 138.610544)"><g><path d="M 6.515625 0 L 4.6875 0 L 4.375 -2.09375 L 2.15625 -2.09375 L 1.84375 0 L 0.1875 0 L 2.015625 -11.5 L 4.671875 -11.5 Z M 2.390625 -3.65625 L 4.125 -3.65625 L 3.25 -9.46875 Z M 2.390625 -3.65625 "/></g></g></g><g fill="#2d0d6b" fill-opacity="1"><g transform="translate(185.690368, 138.610544)"><g><path d="M 0.65625 -11.5 L 2.46875 -11.5 L 2.46875 -1.640625 L 5.4375 -1.640625 L 5.4375 0 L 0.65625 0 Z M 0.65625 -11.5 "/></g></g></g><g fill="#2d0d6b" fill-opacity="1"><g transform="translate(191.260001, 138.610544)"><g/></g></g><g fill="#2d0d6b" fill-opacity="1"><g transform="translate(193.806586, 138.610544)"><g><path d="M 6.515625 0 L 4.6875 0 L 4.375 -2.09375 L 2.15625 -2.09375 L 1.84375 0 L 0.1875 0 L 2.015625 -11.5 L 4.671875 -11.5 Z M 2.390625 -3.65625 L 4.125 -3.65625 L 3.25 -9.46875 Z M 2.390625 -3.65625 "/></g></g></g><g fill="#2d0d6b" fill-opacity="1"><g transform="translate(200.493437, 138.610544)"><g><path d="M 0.65625 -11.5 L 2.46875 -11.5 L 2.46875 -1.640625 L 5.4375 -1.640625 L 5.4375 0 L 0.65625 0 Z M 0.65625 -11.5 "/></g></g></g><g fill="#2d0d6b" fill-opacity="1"><g transform="translate(69.516618, 161.110542)"><g><path d="M 6.515625 0 L 4.6875 0 L 4.375 -2.09375 L 2.15625 -2.09375 L 1.84375 0 L 0.1875 0 L 2.015625 -11.5 L 4.671875 -11.5 Z M 2.390625 -3.65625 L 4.125 -3.65625 L 3.25 -9.46875 Z M 2.390625 -3.65625 "/></g></g></g><g fill="#2d0d6b" fill-opacity="1"><g transform="translate(76.203469, 161.110542)"><g><path d="M 0.65625 -11.5 L 2.46875 -11.5 L 2.46875 -1.640625 L 5.4375 -1.640625 L 5.4375 0 L 0.65625 0 Z M 0.65625 -11.5 "/></g></g></g><g fill="#2d0d6b" fill-opacity="1"><g transform="translate(81.773102, 161.110542)"><g><path d="M 5.90625 -4.296875 L 5.90625 -2.765625 C 5.90625 -1.828125 5.675781 -1.109375 5.21875 -0.609375 C 4.757812 -0.117188 4.085938 0.125 3.203125 0.125 C 2.316406 0.125 1.644531 -0.117188 1.1875 -0.609375 C 0.738281 -1.109375 0.515625 -1.828125 0.515625 -2.765625 L 0.515625 -8.75 C 0.515625 -9.675781 0.738281 -10.390625 1.1875 -10.890625 C 1.644531 -11.390625 2.316406 -11.640625 3.203125 -11.640625 C 4.085938 -11.640625 4.757812 -11.390625 5.21875 -10.890625 C 5.675781 -10.390625 5.90625 -9.675781 5.90625 -8.75 L 5.90625 -7.625 L 4.1875 -7.625 L 4.1875 -8.859375 C 4.1875 -9.273438 4.101562 -9.566406 3.9375 -9.734375 C 3.769531 -9.910156 3.539062 -10 3.25 -10 C 2.96875 -10 2.738281 -9.910156 2.5625 -9.734375 C 2.394531 -9.566406 2.3125 -9.273438 2.3125 -8.859375 L 2.3125 -2.640625 C 2.3125 -2.222656 2.394531 -1.929688 2.5625 -1.765625 C 2.738281 -1.609375 2.96875 -1.53125 3.25 -1.53125 C 3.539062 -1.53125 3.769531 -1.609375 3.9375 -1.765625 C 4.101562 -1.929688 4.1875 -2.222656 4.1875 -2.640625 L 4.1875 -4.296875 Z M 5.90625 -4.296875 "/></g></g></g><g fill="#2d0d6b" fill-opacity="1"><g transform="translate(88.114925, 161.110542)"><g><path d="M 6.515625 0 L 4.6875 0 L 4.375 -2.09375 L 2.15625 -2.09375 L 1.84375 0 L 0.1875 0 L 2.015625 -11.5 L 4.671875 -11.5 Z M 2.390625 -3.65625 L 4.125 -3.65625 L 3.25 -9.46875 Z M 2.390625 -3.65625 "/></g></g></g><g fill="#2d0d6b" fill-opacity="1"><g transform="translate(94.801776, 161.110542)"><g><path d="M 2.265625 -8.328125 L 2.265625 0 L 0.640625 0 L 0.640625 -11.5 L 2.90625 -11.5 L 4.765625 -4.625 L 4.765625 -11.5 L 6.375 -11.5 L 6.375 0 L 4.515625 0 Z M 2.265625 -8.328125 "/></g></g></g><g fill="#2d0d6b" fill-opacity="1"><g transform="translate(101.817221, 161.110542)"><g><path d="M 5.90625 -4.296875 L 5.90625 -2.765625 C 5.90625 -1.828125 5.675781 -1.109375 5.21875 -0.609375 C 4.757812 -0.117188 4.085938 0.125 3.203125 0.125 C 2.316406 0.125 1.644531 -0.117188 1.1875 -0.609375 C 0.738281 -1.109375 0.515625 -1.828125 0.515625 -2.765625 L 0.515625 -8.75 C 0.515625 -9.675781 0.738281 -10.390625 1.1875 -10.890625 C 1.644531 -11.390625 2.316406 -11.640625 3.203125 -11.640625 C 4.085938 -11.640625 4.757812 -11.390625 5.21875 -10.890625 C 5.675781 -10.390625 5.90625 -9.675781 5.90625 -8.75 L 5.90625 -7.625 L 4.1875 -7.625 L 4.1875 -8.859375 C 4.1875 -9.273438 4.101562 -9.566406 3.9375 -9.734375 C 3.769531 -9.910156 3.539062 -10 3.25 -10 C 2.96875 -10 2.738281 -9.910156 2.5625 -9.734375 C 2.394531 -9.566406 2.3125 -9.273438 2.3125 -8.859375 L 2.3125 -2.640625 C 2.3125 -2.222656 2.394531 -1.929688 2.5625 -1.765625 C 2.738281 -1.609375 2.96875 -1.53125 3.25 -1.53125 C 3.539062 -1.53125 3.769531 -1.609375 3.9375 -1.765625 C 4.101562 -1.929688 4.1875 -2.222656 4.1875 -2.640625 L 4.1875 -4.296875 Z M 5.90625 -4.296875 "/></g></g></g><g fill="#2d0d6b" fill-opacity="1"><g transform="translate(108.159044, 161.110542)"><g><path d="M 2.46875 -6.65625 L 4.953125 -6.65625 L 4.953125 -5.015625 L 2.46875 -5.015625 L 2.46875 -1.640625 L 5.59375 -1.640625 L 5.59375 0 L 0.65625 0 L 0.65625 -11.5 L 5.59375 -11.5 L 5.59375 -9.859375 L 2.46875 -9.859375 Z M 2.46875 -6.65625 "/></g></g></g><g fill="#2d0d6b" fill-opacity="1"><g transform="translate(114.20514, 161.110542)"><g/></g></g><g fill="#2d0d6b" fill-opacity="1"><g transform="translate(116.751725, 161.110542)"><g><path d="M 0.65625 -11.5 L 3.515625 -11.5 C 4.421875 -11.5 5.097656 -11.257812 5.546875 -10.78125 C 5.992188 -10.300781 6.21875 -9.59375 6.21875 -8.65625 L 6.21875 -2.84375 C 6.21875 -1.914062 5.992188 -1.207031 5.546875 -0.71875 C 5.097656 -0.238281 4.421875 0 3.515625 0 L 0.65625 0 Z M 2.46875 -9.859375 L 2.46875 -1.640625 L 3.484375 -1.640625 C 3.765625 -1.640625 3.988281 -1.722656 4.15625 -1.890625 C 4.320312 -2.054688 4.40625 -2.347656 4.40625 -2.765625 L 4.40625 -8.75 C 4.40625 -9.164062 4.320312 -9.453125 4.15625 -9.609375 C 3.988281 -9.773438 3.765625 -9.859375 3.484375 -9.859375 Z M 2.46875 -9.859375 "/></g></g></g><g fill="#2d0d6b" fill-opacity="1"><g transform="translate(123.454998, 161.110542)"><g><path d="M 2.46875 -6.65625 L 4.953125 -6.65625 L 4.953125 -5.015625 L 2.46875 -5.015625 L 2.46875 -1.640625 L 5.59375 -1.640625 L 5.59375 0 L 0.65625 0 L 0.65625 -11.5 L 5.59375 -11.5 L 5.59375 -9.859375 L 2.46875 -9.859375 Z M 2.46875 -6.65625 "/></g></g></g><g fill="#2d0d6b" fill-opacity="1"><g transform="translate(129.501095, 161.110542)"><g/></g></g><g fill="#2d0d6b" fill-opacity="1"><g transform="translate(132.04768, 161.110542)"><g><path d="M 0.125 -11.5 L 5.71875 -11.5 L 5.71875 -9.859375 L 3.828125 -9.859375 L 3.828125 0 L 2.015625 0 L 2.015625 -9.859375 L 0.125 -9.859375 Z M 0.125 -11.5 "/></g></g></g><g fill="#2d0d6b" fill-opacity="1"><g transform="translate(137.896617, 161.110542)"><g><path d="M 2.390625 -11.5 L 2.390625 -2.625 C 2.390625 -2.207031 2.472656 -1.914062 2.640625 -1.75 C 2.804688 -1.59375 3.035156 -1.515625 3.328125 -1.515625 C 3.609375 -1.515625 3.832031 -1.59375 4 -1.75 C 4.164062 -1.914062 4.25 -2.207031 4.25 -2.625 L 4.25 -11.5 L 5.96875 -11.5 L 5.96875 -2.75 C 5.96875 -1.8125 5.738281 -1.09375 5.28125 -0.59375 C 4.832031 -0.101562 4.160156 0.140625 3.265625 0.140625 C 2.378906 0.140625 1.707031 -0.101562 1.25 -0.59375 C 0.800781 -1.09375 0.578125 -1.8125 0.578125 -2.75 L 0.578125 -11.5 Z M 2.390625 -11.5 "/></g></g></g><g fill="#2d0d6b" fill-opacity="1"><g transform="translate(144.435599, 161.110542)"><g><path d="M 0.421875 -8.75 C 0.421875 -9.675781 0.644531 -10.390625 1.09375 -10.890625 C 1.539062 -11.390625 2.207031 -11.640625 3.09375 -11.640625 C 3.976562 -11.640625 4.640625 -11.390625 5.078125 -10.890625 C 5.523438 -10.390625 5.75 -9.675781 5.75 -8.75 L 5.75 -8.390625 L 4.046875 -8.390625 L 4.046875 -8.859375 C 4.046875 -9.273438 3.960938 -9.566406 3.796875 -9.734375 C 3.640625 -9.910156 3.421875 -10 3.140625 -10 C 2.859375 -10 2.632812 -9.910156 2.46875 -9.734375 C 2.3125 -9.566406 2.234375 -9.273438 2.234375 -8.859375 C 2.234375 -8.460938 2.320312 -8.113281 2.5 -7.8125 C 2.675781 -7.507812 2.894531 -7.222656 3.15625 -6.953125 C 3.414062 -6.691406 3.695312 -6.425781 4 -6.15625 C 4.300781 -5.882812 4.582031 -5.585938 4.84375 -5.265625 C 5.113281 -4.953125 5.332031 -4.59375 5.5 -4.1875 C 5.675781 -3.78125 5.765625 -3.304688 5.765625 -2.765625 C 5.765625 -1.828125 5.535156 -1.109375 5.078125 -0.609375 C 4.628906 -0.117188 3.960938 0.125 3.078125 0.125 C 2.191406 0.125 1.519531 -0.117188 1.0625 -0.609375 C 0.601562 -1.109375 0.375 -1.828125 0.375 -2.765625 L 0.375 -3.46875 L 2.09375 -3.46875 L 2.09375 -2.640625 C 2.09375 -2.222656 2.175781 -1.929688 2.34375 -1.765625 C 2.507812 -1.609375 2.738281 -1.53125 3.03125 -1.53125 C 3.3125 -1.53125 3.535156 -1.609375 3.703125 -1.765625 C 3.878906 -1.929688 3.96875 -2.222656 3.96875 -2.640625 C 3.96875 -3.035156 3.878906 -3.382812 3.703125 -3.6875 C 3.523438 -3.988281 3.300781 -4.273438 3.03125 -4.546875 C 2.769531 -4.816406 2.488281 -5.082031 2.1875 -5.34375 C 1.894531 -5.613281 1.613281 -5.90625 1.34375 -6.21875 C 1.082031 -6.539062 0.863281 -6.90625 0.6875 -7.3125 C 0.507812 -7.71875 0.421875 -8.195312 0.421875 -8.75 Z M 0.421875 -8.75 "/></g></g></g><g fill="#2d0d6b" fill-opacity="1"><g transform="translate(150.580275, 161.110542)"><g/></g></g><g fill="#2d0d6b" fill-opacity="1"><g transform="translate(153.12686, 161.110542)"><g><path d="M 4.484375 -3.34375 L 5.71875 -11.5 L 8.234375 -11.5 L 8.234375 0 L 6.53125 0 L 6.53125 -8.25 L 5.28125 0 L 3.5625 0 L 2.21875 -8.140625 L 2.21875 0 L 0.640625 0 L 0.640625 -11.5 L 3.15625 -11.5 Z M 4.484375 -3.34375 "/></g></g></g><g fill="#2d0d6b" fill-opacity="1"><g transform="translate(162.015279, 161.110542)"><g><path d="M 6.515625 0 L 4.6875 0 L 4.375 -2.09375 L 2.15625 -2.09375 L 1.84375 0 L 0.1875 0 L 2.015625 -11.5 L 4.671875 -11.5 Z M 2.390625 -3.65625 L 4.125 -3.65625 L 3.25 -9.46875 Z M 2.390625 -3.65625 "/></g></g></g><g fill="#2d0d6b" fill-opacity="1"><g transform="translate(168.70213, 161.110542)"><g><path d="M 2.265625 -8.328125 L 2.265625 0 L 0.640625 0 L 0.640625 -11.5 L 2.90625 -11.5 L 4.765625 -4.625 L 4.765625 -11.5 L 6.375 -11.5 L 6.375 0 L 4.515625 0 Z M 2.265625 -8.328125 "/></g></g></g><g fill="#2d0d6b" fill-opacity="1"><g transform="translate(175.717575, 161.110542)"><g><path d="M 2.3125 -2.640625 C 2.3125 -2.222656 2.394531 -1.929688 2.5625 -1.765625 C 2.738281 -1.597656 2.96875 -1.515625 3.25 -1.515625 C 3.539062 -1.515625 3.769531 -1.597656 3.9375 -1.765625 C 4.101562 -1.929688 4.1875 -2.222656 4.1875 -2.640625 L 4.1875 -8.859375 C 4.1875 -9.273438 4.101562 -9.566406 3.9375 -9.734375 C 3.769531 -9.910156 3.539062 -10 3.25 -10 C 2.96875 -10 2.738281 -9.910156 2.5625 -9.734375 C 2.394531 -9.566406 2.3125 -9.273438 2.3125 -8.859375 Z M 0.515625 -8.75 C 0.515625 -9.675781 0.75 -10.390625 1.21875 -10.890625 C 1.6875 -11.390625 2.363281 -11.640625 3.25 -11.640625 C 4.144531 -11.640625 4.828125 -11.390625 5.296875 -10.890625 C 5.765625 -10.390625 6 -9.675781 6 -8.75 L 6 -2.765625 C 6 -1.828125 5.765625 -1.109375 5.296875 -0.609375 C 4.828125 -0.117188 4.144531 0.125 3.25 0.125 C 2.363281 0.125 1.6875 -0.117188 1.21875 -0.609375 C 0.75 -1.109375 0.515625 -1.828125 0.515625 -2.765625 Z M 0.515625 -8.75 "/></g></g></g><g fill="#2d0d6b" fill-opacity="1"><g transform="translate(182.223701, 161.110542)"><g><path d="M 0.421875 -8.75 C 0.421875 -9.675781 0.644531 -10.390625 1.09375 -10.890625 C 1.539062 -11.390625 2.207031 -11.640625 3.09375 -11.640625 C 3.976562 -11.640625 4.640625 -11.390625 5.078125 -10.890625 C 5.523438 -10.390625 5.75 -9.675781 5.75 -8.75 L 5.75 -8.390625 L 4.046875 -8.390625 L 4.046875 -8.859375 C 4.046875 -9.273438 3.960938 -9.566406 3.796875 -9.734375 C 3.640625 -9.910156 3.421875 -10 3.140625 -10 C 2.859375 -10 2.632812 -9.910156 2.46875 -9.734375 C 2.3125 -9.566406 2.234375 -9.273438 2.234375 -8.859375 C 2.234375 -8.460938 2.320312 -8.113281 2.5 -7.8125 C 2.675781 -7.507812 2.894531 -7.222656 3.15625 -6.953125 C 3.414062 -6.691406 3.695312 -6.425781 4 -6.15625 C 4.300781 -5.882812 4.582031 -5.585938 4.84375 -5.265625 C 5.113281 -4.953125 5.332031 -4.59375 5.5 -4.1875 C 5.675781 -3.78125 5.765625 -3.304688 5.765625 -2.765625 C 5.765625 -1.828125 5.535156 -1.109375 5.078125 -0.609375 C 4.628906 -0.117188 3.960938 0.125 3.078125 0.125 C 2.191406 0.125 1.519531 -0.117188 1.0625 -0.609375 C 0.601562 -1.109375 0.375 -1.828125 0.375 -2.765625 L 0.375 -3.46875 L 2.09375 -3.46875 L 2.09375 -2.640625 C 2.09375 -2.222656 2.175781 -1.929688 2.34375 -1.765625 C 2.507812 -1.609375 2.738281 -1.53125 3.03125 -1.53125 C 3.3125 -1.53125 3.535156 -1.609375 3.703125 -1.765625 C 3.878906 -1.929688 3.96875 -2.222656 3.96875 -2.640625 C 3.96875 -3.035156 3.878906 -3.382812 3.703125 -3.6875 C 3.523438 -3.988281 3.300781 -4.273438 3.03125 -4.546875 C 2.769531 -4.816406 2.488281 -5.082031 2.1875 -5.34375 C 1.894531 -5.613281 1.613281 -5.90625 1.34375 -6.21875 C 1.082031 -6.539062 0.863281 -6.90625 0.6875 -7.3125 C 0.507812 -7.71875 0.421875 -8.195312 0.421875 -8.75 Z M 0.421875 -8.75 "/></g></g></g><g fill="#2d0d6b" fill-opacity="1"><g transform="translate(188.368377, 161.110542)"><g><path d="M 2.40625 -1.75 L 2.40625 0 L 0.65625 0 L 0.65625 -1.75 Z M 2.40625 -1.75 "/></g></g></g><g clip-path="url(#73804dc2a9)"><path fill="#353da8" d="M 417.296875 36.773438 L 435.296875 36.773438 L 435.296875 54.773438 L 417.296875 54.773438 Z M 417.296875 36.773438 " fill-opacity="1" fill-rule="nonzero"/></g><g clip-path="url(#561f39c6e3)"><path fill="#000000" d="M 406.796875 47.246094 L 424.796875 47.246094 L 424.796875 65.246094 L 406.796875 65.246094 Z M 406.796875 47.246094 " fill-opacity="1" fill-rule="nonzero"/></g></svg>