<svg xmlns="http://www.w3.org/2000/svg" xmlns:xlink="http://www.w3.org/1999/xlink" width="180" zoomAndPan="magnify" viewBox="0 0 135 52.499999" height="70" preserveAspectRatio="xMidYMid meet" version="1.0"><defs><g/><clipPath id="206bc880f7"><path d="M 8 15.675781 L 26.640625 15.675781 L 26.640625 33 L 8 33 Z M 8 15.675781 " clip-rule="nonzero"/></clipPath><clipPath id="aac0efb31d"><path d="M 4.351562 17 L 24 17 L 24 36.476562 L 4.351562 36.476562 Z M 4.351562 17 " clip-rule="nonzero"/></clipPath></defs><g clip-path="url(#206bc880f7)"><path fill="#2f1c6a" d="M 8.617188 25.46875 C 8.640625 25.195312 8.757812 24.953125 8.925781 24.730469 C 9.519531 23.949219 10.851562 23.589844 11.785156 24.167969 C 12.332031 24.507812 12.773438 24.945312 13.140625 25.460938 C 13.441406 25.890625 13.71875 26.339844 14.015625 26.792969 C 14.222656 26.5 14.429688 26.199219 14.644531 25.902344 C 16.480469 23.34375 18.496094 20.945312 20.832031 18.832031 C 22.265625 17.53125 23.910156 16.570312 25.683594 15.808594 C 25.988281 15.675781 26.242188 15.726562 26.507812 15.992188 C 26.386719 16.105469 26.265625 16.214844 26.148438 16.328125 C 24.601562 17.785156 23.089844 19.28125 21.714844 20.90625 C 20.929688 21.835938 20.199219 22.8125 19.449219 23.773438 C 17.941406 25.703125 16.8125 27.878906 15.527344 29.953125 C 15.03125 30.757812 14.542969 31.5625 14.046875 32.363281 C 13.847656 32.679688 13.589844 32.675781 13.390625 32.351562 C 12.75 31.292969 12.242188 30.171875 11.765625 29.035156 C 11.367188 28.085938 10.917969 27.160156 10.347656 26.296875 C 10.066406 25.871094 9.734375 25.519531 9.1875 25.472656 C 9.003906 25.457031 8.816406 25.46875 8.617188 25.46875 Z M 8.617188 25.46875 " fill-opacity="1" fill-rule="nonzero"/></g><g clip-path="url(#aac0efb31d)"><path fill="#2f1c6a" d="M 22.503906 22.164062 L 21 23.667969 C 21.433594 24.628906 21.675781 25.691406 21.675781 26.8125 C 21.675781 31.035156 18.25 34.460938 14.027344 34.460938 C 9.804688 34.460938 6.382812 31.035156 6.382812 26.8125 C 6.382812 22.589844 9.804688 19.167969 14.027344 19.167969 C 15.085938 19.167969 16.089844 19.382812 17.003906 19.769531 L 18.519531 18.253906 C 17.175781 17.546875 15.648438 17.148438 14.027344 17.148438 C 8.691406 17.148438 4.363281 21.476562 4.363281 26.8125 C 4.363281 32.152344 8.691406 36.476562 14.027344 36.476562 C 19.367188 36.476562 23.691406 32.152344 23.691406 26.8125 C 23.691406 25.128906 23.261719 23.542969 22.503906 22.164062 Z M 22.503906 22.164062 " fill-opacity="1" fill-rule="nonzero"/></g><g fill="#2f1c6a" fill-opacity="1"><g transform="translate(26.871315, 31.475237)"><g><path d="M -0.015625 -1.886719 C 0.925781 -0.65625 2.863281 0.203125 5.066406 0.203125 C 7.84375 0.203125 9.476562 -1.566406 9.476562 -3.550781 C 9.476562 -5.503906 7.492188 -6.261719 5.925781 -6.816406 C 4.863281 -7.207031 4.007812 -7.558594 4.007812 -8.164062 C 4.007812 -8.789062 4.644531 -9.34375 5.574219 -9.34375 C 6.683594 -9.34375 8.0625 -8.871094 8.855469 -7.914062 L 10.335938 -9.578125 C 9.34375 -10.742188 7.660156 -11.398438 5.875 -11.398438 C 3.097656 -11.398438 1.5 -9.597656 1.5 -7.894531 C 1.5 -5.890625 3.449219 -5.152344 5.015625 -4.597656 C 6.078125 -4.207031 6.9375 -3.855469 6.9375 -3.183594 C 6.9375 -2.574219 6.449219 -1.886719 5.253906 -1.886719 C 3.703125 -1.886719 2.238281 -2.574219 1.449219 -3.621094 Z M -0.015625 -1.886719 "/></g></g></g><g fill="#2f1c6a" fill-opacity="1"><g transform="translate(36.970422, 31.475237)"><g><path d="M 8.148438 0 L 8.585938 -2.070312 L 3.046875 -2.070312 L 3.621094 -4.679688 L 9.058594 -4.679688 L 9.511719 -6.734375 L 4.089844 -6.734375 L 4.613281 -9.175781 L 10.152344 -9.175781 L 10.621094 -11.230469 L 2.675781 -11.230469 L 0.203125 0 Z M 8.148438 0 "/></g></g></g><g fill="#2f1c6a" fill-opacity="1"><g transform="translate(46.783394, 31.475237)"><g><path d="M 7.339844 0 L 7.792969 -2.105469 L 3.0625 -2.105469 L 5.066406 -11.230469 L 2.675781 -11.230469 L 0.203125 0 Z M 7.339844 0 "/></g></g></g><g fill="#2f1c6a" fill-opacity="1"><g transform="translate(55.586452, 31.475237)"><g><path d="M 8.148438 0 L 8.585938 -2.070312 L 3.046875 -2.070312 L 3.621094 -4.679688 L 9.058594 -4.679688 L 9.511719 -6.734375 L 4.089844 -6.734375 L 4.613281 -9.175781 L 10.152344 -9.175781 L 10.621094 -11.230469 L 2.675781 -11.230469 L 0.203125 0 Z M 8.148438 0 "/></g></g></g><g fill="#2f1c6a" fill-opacity="1"><g transform="translate(65.399424, 31.475237)"><g><path d="M 0.742188 -4.832031 C 0.742188 -1.769531 3.164062 0.203125 6.261719 0.203125 C 7.726562 0.203125 9.597656 -0.320312 10.875 -1.953125 L 9.039062 -3.214844 C 8.402344 -2.425781 7.355469 -1.917969 6.398438 -1.917969 C 4.460938 -1.917969 3.230469 -3.230469 3.230469 -4.984375 C 3.230469 -7.441406 5.035156 -9.292969 7.15625 -9.292969 C 8.449219 -9.292969 9.511719 -8.636719 9.949219 -7.457031 L 12.253906 -8.230469 C 11.597656 -9.933594 10.015625 -11.414062 7.273438 -11.414062 C 3.769531 -11.414062 0.742188 -8.804688 0.742188 -4.832031 Z M 0.742188 -4.832031 "/></g></g></g><g fill="#2f1c6a" fill-opacity="1"><g transform="translate(76.962898, 31.475237)"><g><path d="M 5.203125 0 L 7.207031 -9.125 L 10.488281 -9.125 L 10.941406 -11.230469 L 1.988281 -11.230469 L 1.515625 -9.125 L 4.796875 -9.125 L 2.792969 0 Z M 5.203125 0 "/></g></g></g><g fill="#242424" fill-opacity="1"><g transform="translate(86.769601, 31.475237)"><g><path d="M -0.015625 -1.886719 C 0.925781 -0.65625 2.863281 0.203125 5.066406 0.203125 C 7.84375 0.203125 9.476562 -1.566406 9.476562 -3.550781 C 9.476562 -5.503906 7.492188 -6.261719 5.925781 -6.816406 C 4.863281 -7.207031 4.007812 -7.558594 4.007812 -8.164062 C 4.007812 -8.789062 4.644531 -9.34375 5.574219 -9.34375 C 6.683594 -9.34375 8.0625 -8.871094 8.855469 -7.914062 L 10.335938 -9.578125 C 9.34375 -10.742188 7.660156 -11.398438 5.875 -11.398438 C 3.097656 -11.398438 1.5 -9.597656 1.5 -7.894531 C 1.5 -5.890625 3.449219 -5.152344 5.015625 -4.597656 C 6.078125 -4.207031 6.9375 -3.855469 6.9375 -3.183594 C 6.9375 -2.574219 6.449219 -1.886719 5.253906 -1.886719 C 3.703125 -1.886719 2.238281 -2.574219 1.449219 -3.621094 Z M -0.015625 -1.886719 "/></g></g></g><g fill="#242424" fill-opacity="1"><g transform="translate(96.868708, 31.475237)"><g><path d="M 0.742188 -4.832031 C 0.742188 -1.75 3.148438 0.203125 6.261719 0.203125 C 9.964844 0.203125 12.777344 -2.726562 12.777344 -6.398438 C 12.777344 -9.460938 10.371094 -11.414062 7.273438 -11.414062 C 3.570312 -11.414062 0.742188 -8.5 0.742188 -4.832031 Z M 10.285156 -6.230469 C 10.285156 -3.820312 8.550781 -1.917969 6.398438 -1.917969 C 4.597656 -1.917969 3.230469 -3.082031 3.230469 -4.984375 C 3.230469 -7.390625 4.949219 -9.292969 7.121094 -9.292969 C 8.921875 -9.292969 10.285156 -8.113281 10.285156 -6.230469 Z M 10.285156 -6.230469 "/></g></g></g><g fill="#242424" fill-opacity="1"><g transform="translate(109.745076, 31.475237)"><g><path d="M 2.59375 0 L 3.621094 -4.679688 L 9.058594 -4.679688 L 9.511719 -6.734375 L 4.089844 -6.734375 L 4.613281 -9.175781 L 10.152344 -9.175781 L 10.621094 -11.230469 L 2.675781 -11.230469 L 0.203125 0 Z M 2.59375 0 "/></g></g></g><g fill="#242424" fill-opacity="1"><g transform="translate(119.35606, 31.475237)"><g><path d="M 5.203125 0 L 7.207031 -9.125 L 10.488281 -9.125 L 10.941406 -11.230469 L 1.988281 -11.230469 L 1.515625 -9.125 L 4.796875 -9.125 L 2.792969 0 Z M 5.203125 0 "/></g></g></g></svg>